<?xml version="1.0" encoding="UTF-8" standalone="no"?>
<!DOCTYPE svg PUBLIC "-//W3C//DTD SVG 1.1//EN" "http://www.w3.org/Graphics/SVG/1.1/DTD/svg11.dtd">
<svg width="100%" height="100%" viewBox="0 0 1728 1266" version="1.1" xmlns="http://www.w3.org/2000/svg" xmlns:xlink="http://www.w3.org/1999/xlink" xml:space="preserve" xmlns:serif="http://www.serif.com/" style="fill-rule:evenodd;clip-rule:evenodd;stroke-linejoin:bevel;stroke-miterlimit:2;">
    <g transform="matrix(1,0,0,1,-599.069,-439.93)">
        <g transform="matrix(1.72532,0,0,1.95702,0,0)">
            <g transform="matrix(0.203229,0.260338,-0.510175,0.30954,1803.43,-674.691)">
                <ellipse cx="1908.61" cy="2447.45" rx="672.532" ry="748.657" style="fill:rgb(211,211,211);"/>
            </g>
            <g transform="matrix(1,0,0,1,-8.33841,0)">
                <g transform="matrix(0.579603,0,0,0.510981,384.788,-544.427)">
                    <path d="M669.427,2051.44C623.942,2105.32 584.208,2131.73 564.752,2142.61C522.763,2101.97 495.022,2060.95 476.859,2026.3C497.838,1991.79 581.25,1975.02 581.25,1975.02C520.612,1974.77 473.855,1996.29 464.624,2000.85C447.656,1962.1 443.787,1936.07 443.787,1936.07C490.696,1888.3 541.341,1860.43 580.878,1841.15C600.01,1862.15 619.935,1897.54 631.434,1957.12C641.019,2006.79 653.116,2035.5 669.427,2051.44ZM1229.51,2026.8C1250.25,2065.7 1273.74,2113.44 1284.85,2149.01C1238.28,2185.68 1193.45,2208.98 1163.21,2224.6C1075.22,2270.07 893.329,2346.72 681.461,2228.46C649.722,2210.74 622.186,2191.76 598.258,2172.31C617.799,2141.68 648.363,2093.94 673.339,2054.95C703.052,2079.42 746.072,2066.72 811.511,2060.62C917.281,2050.76 870.461,2247.9 1077.45,2132.08C1159.66,2086.09 1204.94,2054.35 1229.51,2026.8ZM1386.49,1935.85C1395.19,1940.85 1412.66,1953 1425.87,1975.79C1398.89,2031.01 1364.83,2074.84 1329.4,2109.79C1319.08,2103.22 1276,2074.15 1233.73,2021.86C1265.99,1982.38 1256.3,1950.52 1254.88,1895.12C1252.79,1814.15 1358.29,1845.77 1387.85,1751.5C1425.4,1756.58 1481.33,1752.76 1481.33,1752.76C1478.65,1798.36 1471.93,1839.64 1462.16,1877.1C1393.76,1889.49 1343.53,1869.33 1333.64,1864.91C1332.47,1864.37 1331.83,1864.07 1331.83,1864.07C1331.83,1864.07 1332.47,1864.39 1333.64,1864.91C1343.95,1869.69 1397.25,1894.38 1449.76,1918.14C1445.55,1930.31 1441.02,1942.06 1436.18,1953.33C1413.94,1948.49 1395.28,1940.17 1386.49,1935.85C1383.14,1933.93 1381.08,1933.06 1381.08,1933.06C1381.08,1933.06 1383.02,1934.15 1386.49,1935.85Z" style="fill:rgb(248,88,174);fill-rule:nonzero;"/>
                </g>
                <g transform="matrix(0.579603,0,0,0.510981,0,0)">
                    <path d="M1244.76,775.694C1262.57,767.005 1278.13,760.06 1290.08,753.824C1328.54,733.747 1336.52,710.35 1382.11,574.464C1394.77,536.72 1416.76,509.269 1441.91,489.307C1522.83,425.092 1639.61,436.354 1710.02,511.94C1720.79,523.496 1731.49,536.718 1741.74,551.818C1806.36,647.056 1886.32,637.208 1920.2,639.688C1954.08,642.169 2003.27,675.585 2039.21,683.834C2043.04,684.713 2047.25,685.445 2051.73,686.05C2022.17,780.32 1916.67,748.699 1918.76,829.664C1920.18,885.069 1929.87,916.926 1897.61,956.402C1886.92,943.176 1876.28,928.465 1866.23,912.257C1859.05,899.726 1854.49,892.109 1854.49,892.109C1858.28,899.072 1862.21,905.774 1866.23,912.257C1873.34,924.669 1883.02,941.904 1893.39,961.343C1868.82,988.891 1823.54,1020.63 1741.34,1066.63C1534.34,1182.44 1581.16,985.307 1475.39,995.164C1409.95,1001.26 1366.93,1013.96 1337.22,989.499C1329.6,1001.39 1321.46,1014.1 1313.28,1026.88C1276.19,1059.85 1245.88,1067.51 1228.63,1077.15C1248.09,1066.27 1287.82,1039.87 1333.31,985.985C1317,970.05 1304.9,941.334 1295.32,891.668C1283.82,832.082 1263.89,796.693 1244.76,775.694Z" style="fill:rgb(8,6,5);fill-rule:nonzero;"/>
                </g>
                <g transform="matrix(0.579603,0,0,0.510981,0,0)">
                    <path d="M1244.76,775.694C1262.57,767.005 1278.13,760.06 1290.08,753.824C1328.54,733.747 1336.52,710.35 1382.11,574.464C1394.77,536.72 1416.76,509.269 1441.91,489.307C1522.83,425.092 1639.61,436.354 1710.02,511.94C1720.79,523.496 1731.49,536.718 1741.74,551.818C1806.36,647.056 1886.32,637.208 1920.2,639.688C1954.08,642.169 2003.27,675.585 2039.21,683.834C2043.04,684.713 2047.25,685.445 2051.73,686.05C2022.17,780.32 1916.67,748.699 1918.76,829.664C1920.18,885.069 1929.87,916.926 1897.61,956.402C1886.92,943.176 1876.28,928.465 1866.23,912.257C1859.05,899.726 1854.49,892.109 1854.49,892.109C1858.28,899.072 1862.21,905.774 1866.23,912.257C1873.34,924.669 1883.02,941.904 1893.39,961.343C1868.82,988.891 1823.54,1020.63 1741.34,1066.63C1534.34,1182.44 1581.16,985.307 1475.39,995.164C1409.95,1001.26 1366.93,1013.96 1337.22,989.499C1329.6,1001.39 1321.46,1014.1 1313.28,1026.88C1276.19,1059.85 1245.88,1067.51 1228.63,1077.15C1248.09,1066.27 1287.82,1039.87 1333.31,985.985C1317,970.05 1304.9,941.334 1295.32,891.668C1283.82,832.082 1263.89,796.693 1244.76,775.694Z" style="fill:rgb(8,6,5);fill-rule:nonzero;stroke:black;stroke-width:10px;"/>
                </g>
                <g transform="matrix(0.579603,0,0,0.510981,0,0)">
                    <path d="M2065.62,822.571C2081.67,829.92 2099.24,837.936 2116.73,845.85C2120.26,847.448 2122,851.473 2120.73,855.135C2116.46,867.486 2111.87,879.397 2106.96,890.837C2105.54,894.139 2101.98,895.972 2098.47,895.208C2094.34,894.309 2090.33,893.295 2086.48,892.209C2089.86,896.48 2093.16,901.254 2096.24,906.569C2097.49,908.732 2097.59,911.378 2096.49,913.624C2069.1,969.69 2034.52,1014.19 1998.55,1049.68C1996.06,1052.13 1992.2,1052.54 1989.25,1050.66C1980.73,1045.24 1950.27,1024.77 1916.1,988.836C1932.1,1020.62 1947.49,1054.42 1955.89,1081.32C1956.82,1084.29 1955.82,1087.53 1953.38,1089.45C1906.34,1126.48 1861.08,1150.03 1830.54,1165.81C1741.25,1211.94 1556.68,1289.56 1341.69,1169.55C1309.54,1151.6 1281.65,1132.38 1257.41,1112.68C1254.45,1110.27 1253.77,1106.03 1255.82,1102.82C1263.97,1090.05 1274.04,1074.3 1284.82,1057.44C1262.46,1071.18 1244.29,1077 1232.3,1083.7C1229.4,1085.32 1225.8,1084.85 1223.42,1082.55C1180.74,1041.24 1152.56,999.549 1134.1,964.327C1132.88,961.997 1132.96,959.197 1134.33,956.949C1141.16,945.717 1153.97,936.032 1168.67,928.154C1149.42,933.808 1136.23,939.944 1131.83,942.12C1129.99,943.028 1127.86,943.145 1125.94,942.444C1124.01,941.742 1122.46,940.283 1121.64,938.405C1104.17,898.523 1100.25,871.717 1100.25,871.717C1099.9,869.391 1100.67,867.037 1102.32,865.359C1149.94,816.866 1201.33,788.531 1241.47,768.953C1259.21,760.3 1274.71,753.386 1286.61,747.175C1304.43,737.874 1315.11,727.737 1326.7,704.255C1339.11,679.09 1352.37,639.538 1375,572.079C1388.18,532.788 1411.07,504.212 1437.25,483.432C1521.23,416.788 1642.44,428.382 1715.51,506.827C1726.52,518.645 1737.47,532.165 1747.95,547.607C1810.45,639.724 1887.98,629.809 1920.75,632.208C1938.42,633.502 1960.14,642.674 1982.07,652.787C2002.6,662.252 2023.34,672.498 2040.88,676.525C2044.51,677.356 2048.5,678.045 2052.73,678.617C2089.68,683.607 2144.7,679.828 2144.7,679.828C2146.86,679.681 2148.96,680.466 2150.49,681.982C2152.02,683.499 2152.83,685.6 2152.7,687.751C2149.99,733.876 2143.18,775.646 2133.3,813.538C2132.57,816.363 2130.26,818.504 2127.38,819.025C2104.59,823.154 2083.75,823.777 2065.62,822.571ZM1866.23,912.257C1862.21,905.774 1858.28,899.072 1854.49,892.109C1854.49,892.109 1859.05,899.726 1866.23,912.257C1876.28,928.465 1886.92,943.176 1897.61,956.402C1939.88,1008.69 1982.96,1037.77 1993.28,1044.34C2028.71,1009.39 2062.77,965.555 2089.75,910.332C2076.54,887.55 2059.07,875.393 2050.37,870.398C2046.9,868.692 2044.96,867.603 2044.96,867.603C2044.96,867.603 2047.02,868.475 2050.37,870.398C2059.16,874.72 2077.82,883.035 2100.06,887.879C2104.9,876.602 2109.43,864.859 2113.64,852.683C2061.14,828.924 2007.84,804.24 1997.52,799.459C1996.35,798.934 1995.71,798.619 1995.71,798.619C1995.71,798.619 1996.36,798.917 1997.52,799.459C2007.41,803.88 2057.64,824.036 2126.05,811.645C2135.81,774.191 2142.53,732.903 2145.22,687.31C2145.22,687.31 2089.28,691.122 2051.73,686.05C2047.25,685.445 2043.04,684.713 2039.21,683.834C2003.27,675.585 1954.08,642.169 1920.2,639.688C1886.32,637.208 1806.36,647.056 1741.74,551.818C1731.49,536.718 1720.79,523.496 1710.02,511.94C1639.61,436.354 1522.83,425.092 1441.91,489.307C1416.76,509.269 1394.77,536.72 1382.11,574.464C1336.52,710.35 1328.54,733.747 1290.08,753.824C1278.13,760.06 1262.57,767.005 1244.76,775.694C1205.22,794.978 1154.58,822.849 1107.67,870.614C1107.67,870.614 1111.54,896.644 1128.51,935.397C1137.74,930.833 1184.49,909.319 1245.13,909.565C1245.13,909.565 1161.72,926.34 1140.74,960.845C1158.9,995.501 1186.64,1036.52 1228.63,1077.15C1245.88,1067.51 1276.19,1059.85 1313.28,1026.88C1294.62,1056.02 1275.72,1085.57 1262.14,1106.86C1286.07,1126.31 1313.6,1145.28 1345.34,1163C1557.21,1281.27 1739.1,1204.61 1827.1,1159.15C1857.34,1143.52 1902.16,1120.23 1948.74,1083.56C1937.62,1047.99 1914.13,1000.25 1893.39,961.343C1883.02,941.904 1873.34,924.669 1866.23,912.257Z"/>
                </g>
            </g>
            <g>
                <g transform="matrix(-1.03814,0.245292,0.278234,0.915228,500.982,592.658)">
                    <path d="M0,-192.575C0,-192.575 7.067,-206.959 -9.114,-209.356C-9.114,-209.356 4.299,-230.581 2.966,-258.053C2.838,-260.683 2.099,-263.267 0.734,-265.519C-1.062,-268.484 -4.085,-271.192 -8.515,-268.081C-16.39,-262.549 -12.794,-237.377 -27.178,-214.603C-10.996,-266.744 -24.976,-265.569 -24.976,-265.569C-31.764,-266.192 -33.087,-257.003 -33.087,-257.003C-38.996,-207.708 -64.252,-199.767 -64.252,-199.767C-64.252,-199.767 -68.447,-226.137 -85.228,-230.332C-85.228,-230.332 -92.42,-230.931 -89.423,-216.548C-86.427,-202.164 -85.009,-197.368 -85.228,-184.184C-85.438,-171.522 -82.792,-160.286 -77.952,-151.206C-77.951,-151.203 -77.952,-151.201 -77.951,-151.199C-76.326,-146.935 -74.245,-142.343 -74.245,-142.343C-77.225,-129.173 -83.915,-116.683 -89.575,-104.463C-99.625,-82.673 -114.575,-68.463 -130.875,-48.383C-136.812,-41.07 -142.865,-32.653 -150.565,-27.023C-155.935,-25.773 -178.395,-22.753 -183.905,-21.953C-205.475,-18.823 -227.995,-19.103 -250.725,-23.273C-261.165,-25.193 -271.285,-27.863 -281.005,-31.223C-281.745,-31.473 -282.495,-31.733 -283.235,-31.993C-285.155,-32.673 -287.055,-33.383 -288.935,-34.123C-307.755,-39.303 -328.705,-33.383 -341.895,-17.323C-359.775,4.447 -356.615,36.577 -334.855,54.447C-331.215,57.447 -327.285,59.847 -323.165,61.657C-322.965,61.757 -322.765,61.837 -322.565,61.927C-319.345,63.007 -316.085,64.037 -312.805,65.007C-303.735,67.677 -294.425,69.897 -284.905,71.647C-246.895,78.617 -209.285,77.277 -173.945,68.907C-162.645,66.227 -151.585,62.837 -140.825,58.767C-124.415,51.567 -110.175,41.827 -98.655,30.537C-93.485,24.967 -88.575,19.187 -83.915,13.207C-61.295,-15.773 -48.665,-49.213 -39.285,-85.023C-35.765,-98.413 -33.275,-112.143 -31.865,-126.093C-31.271,-128.294 -26.781,-131.168 -25.328,-132.049C-25.203,-132.124 -25.077,-132.198 -24.953,-132.274C-24.899,-132.305 -24.865,-132.325 -24.865,-132.325L-24.868,-132.328C-12.473,-139.923 -5.003,-153.473 -5.003,-153.473C5.784,-166.658 7.916,-187.181 0,-192.575" style="fill:rgb(255,204,176);fill-rule:nonzero;stroke:black;stroke-width:4.04px;stroke-linejoin:round;"/>
                </g>
                <g>
                    <g transform="matrix(0.281571,-0.914435,1.03724,0.248235,492.338,398.641)">
                        <path d="M-28.657,16.482C-7.936,4.426 9.479,16.482 9.479,16.482" style="fill:none;fill-rule:nonzero;stroke:black;stroke-width:4.04px;stroke-linecap:round;stroke-linejoin:round;stroke-miterlimit:10;"/>
                    </g>
                    <g transform="matrix(-1.03814,0.245292,0.278234,0.915228,458.832,427.228)">
                        <path d="M0,6.593C0,6.593 -24.572,26.37 -29.966,14.983C-35.36,3.596 1.448,-19.777 7.316,-13.784" style="fill:none;fill-rule:nonzero;stroke:black;stroke-width:4.04px;stroke-linecap:round;stroke-linejoin:round;stroke-miterlimit:10;"/>
                    </g>
                    <g transform="matrix(-1.03814,0.245292,0.278234,0.915228,473.387,394.57)">
                        <path d="M0,29.007C0,29.007 -8.562,29.786 -9.76,24.392C-10.959,18.998 -8.819,13.605 0,8.81C8.819,4.015 16.01,-0.18 20.206,-0.779" style="fill:none;fill-rule:nonzero;stroke:black;stroke-width:4.04px;stroke-linecap:round;stroke-linejoin:round;stroke-miterlimit:10;"/>
                    </g>
                    <g transform="matrix(-0.692671,0.724501,-0.821797,-0.610663,468.872,383.089)">
                        <path d="M-1.775,-5.652C-1.775,-5.652 10.964,-3.876 17.997,-5.652" style="fill:rgb(157,141,129);fill-rule:nonzero;stroke:black;stroke-width:4.04px;stroke-linecap:round;stroke-linejoin:round;stroke-miterlimit:10;"/>
                    </g>
                    <g transform="matrix(0.877371,0.54728,-0.620776,0.773496,659.173,545.598)">
                        <path d="M-16.044,-7.53C-16.044,-7.53 -3.898,-11.103 3.534,-7.53" style="fill:rgb(157,141,129);fill-rule:nonzero;stroke:black;stroke-width:4.04px;stroke-linecap:round;stroke-linejoin:round;stroke-miterlimit:10;"/>
                    </g>
                </g>
            </g>
            <g transform="matrix(0.579105,-0.0211776,0.0240216,0.510542,-19.3096,29.1649)">
                <path d="M1311.68,970.087C1311.68,970.087 1435,867.35 1559.36,864.646C1683.73,861.943 1772.95,873.977 1858.11,929.467C1943.27,984.956 1934.45,1060.66 1906.92,1168.8C1879.39,1276.94 1928.07,1275.59 1900.4,1354C1872.75,1432.4 1830.3,1462.14 1656.31,1433.75C1482.31,1405.37 1413.37,1564.16 1267.37,1484.09C1121.38,1404.02 1161.34,1100.03 1311.68,970.087Z" style="fill:rgb(255,86,33);stroke:black;stroke-width:7.5px;stroke-linecap:round;stroke-linejoin:round;stroke-miterlimit:1.5;"/>
            </g>
            <g transform="matrix(0.828934,0,-0.181376,0.556581,523.035,-650.479)">
                <path d="M943.285,1974.74C1051.17,1974.74 1153.09,2050.17 1161.54,2121.23C1170.72,2198.36 1217.92,2427.32 1156.9,2490.32C1128.87,2519.26 1041.85,2531.2 1005.53,2531.2C887.142,2531.2 747.804,2168.08 747.804,2099.32C747.804,2030.57 835.396,1974.74 943.285,1974.74Z" style="fill:rgb(255,180,0);stroke:rgb(8,6,5);stroke-width:6.8px;stroke-linecap:round;stroke-linejoin:round;stroke-miterlimit:1.5;"/>
            </g>
            <g transform="matrix(0.579603,0,0,0.510981,0,0)">
                <path d="M1469.06,964.073C1469.06,964.073 1552.06,1048.71 1667.73,962.533" style="fill:none;stroke:rgb(255,152,0);stroke-width:10px;stroke-linecap:round;stroke-linejoin:round;stroke-miterlimit:1.5;"/>
            </g>
            <g>
                <g transform="matrix(0.358802,0,0,0.316322,165.054,-300.259)">
                    <circle cx="904.765" cy="1816.03" r="133.112" style="fill:white;stroke:black;stroke-width:12.12px;stroke-linecap:round;stroke-linejoin:round;stroke-miterlimit:1.5;"/>
                </g>
                <g transform="matrix(0.176149,0,0,0.155294,330.312,-7.82838)">
                    <circle cx="904.765" cy="1816.03" r="133.112" style="fill:white;stroke:black;stroke-width:24.68px;stroke-linecap:round;stroke-linejoin:round;stroke-miterlimit:1.5;"/>
                </g>
            </g>
            <g transform="matrix(0.97906,-0.179471,0.230911,0.97906,-200.058,144.854)">
                <g transform="matrix(-1.52914,7.98441e-17,7.98441e-17,1.3481,716.664,820.823)">
                    <path d="M0,2.036C0,2.036 10.884,3.503 16.652,-7.384L22.361,-2.274C22.361,-2.274 17.58,9.42 0,9.42" style="fill:white;fill-rule:nonzero;stroke:black;stroke-width:2.84px;stroke-linecap:round;stroke-linejoin:round;stroke-miterlimit:10;"/>
                </g>
                <g transform="matrix(-1.52914,7.98441e-17,7.98441e-17,1.3481,713.23,823.569)">
                    <path d="M0,7.384L-81.496,7.384C-83.461,7.384 -85.055,5.791 -85.055,3.825L-85.055,3.558C-85.055,1.593 -83.461,0 -81.496,0L0,0C1.965,0 3.559,1.593 3.559,3.558L3.559,3.825C3.559,5.791 1.965,7.384 0,7.384Z" style="fill:white;fill-rule:nonzero;stroke:black;stroke-width:2.84px;stroke-linecap:round;stroke-linejoin:round;stroke-miterlimit:10;"/>
                </g>
                <g transform="matrix(-1.52914,7.98441e-17,7.98441e-17,1.3481,603.269,814.453)">
                    <path d="M0,-102.034L-52.206,3.28C-53.112,5.107 -55.327,5.854 -57.154,4.949C-58.981,4.043 -59.728,1.828 -58.822,0.001L-6.616,-105.314C-5.711,-107.141 -3.495,-107.888 -1.668,-106.982C0.159,-106.076 0.906,-103.861 0,-102.034Z" style="fill:white;fill-rule:nonzero;stroke:black;stroke-width:2.84px;stroke-linecap:round;stroke-linejoin:round;stroke-miterlimit:10;"/>
                </g>
                <g transform="matrix(-1.52914,7.98441e-17,7.98441e-17,1.3481,405.39,833.11)">
                    <path d="M0,-121.229C-0.967,-121.433 -1.952,-121.536 -2.94,-121.533L-132.528,-121.229L-132.552,-121.192C-132.054,-121.17 -131.553,-121.048 -131.078,-120.813C-129.251,-119.907 -128.504,-117.692 -129.41,-115.865L-181.201,-11.388C-181.201,-11.388 -181.316,-11.106 -181.576,-10.632L-181.612,-10.559C-181.686,-10.41 -181.771,-10.272 -181.861,-10.138C-183.668,-7.125 -189.544,0.307 -203.562,0.307L-72.488,0.307C-57.633,0.307 -51.917,-8.043 -50.502,-10.632L1.668,-115.873C2.574,-117.7 1.827,-120.323 0,-121.229Z" style="fill:white;fill-rule:nonzero;stroke:black;stroke-width:2.84px;stroke-linecap:round;stroke-linejoin:round;stroke-miterlimit:10;"/>
                </g>
            </g>
            <g transform="matrix(1,0,0,1,0,-2.55491)">
                <g transform="matrix(0.579105,-0.0211776,0.0240216,0.510542,-19.3096,31.7198)">
                    <path d="M1699.63,871.146C1757.88,879.689 1800.1,897.907 1849.54,930.117C1934.7,985.606 1934.45,1060.66 1906.92,1168.8C1879.39,1276.94 1928.07,1275.59 1900.4,1354C1888.86,1386.73 1874.73,1410.99 1849.53,1426.07L1789.94,1426.6C1789.94,1426.6 1815.35,1318.55 1724.51,1206.78C1603.88,1058.34 1674.83,868.449 1674.83,868.449L1699.63,871.146Z" style="fill:rgb(255,86,33);stroke:black;stroke-width:7.5px;stroke-linecap:round;stroke-linejoin:round;stroke-miterlimit:1.5;"/>
                </g>
                <g transform="matrix(0.579603,0,0,0.510981,0,0)">
                    <path d="M1704.87,1136.19C1704.87,1136.19 1731.28,1122.85 1781.95,1128.58" style="fill:none;stroke:black;stroke-width:7.5px;stroke-linecap:round;stroke-linejoin:round;stroke-miterlimit:1.5;"/>
                </g>
            </g>
            <g>
                <g>
                    <g transform="matrix(0.104513,-0.944336,1.07115,0.0921393,1138.14,483.556)">
                        <path d="M0,-71.3C-0.951,-66.445 -2.559,-61.897 -4.723,-57.713C-6.513,-54.834 -8.383,-51.969 -10.291,-49.135C-15.598,-41.297 -21.358,-33.657 -27.588,-26.258C-37.427,-14.573 -48.034,-3.93 -59.289,5.654C-89.64,31.527 -124.639,49.731 -161.534,60.021C-161.766,60.081 -161.989,60.152 -162.222,60.213C-163.882,60.678 -165.545,61.123 -167.213,61.55C-175.392,63.646 -184,63.851 -192.168,61.715C-193.983,61.24 -195.79,60.659 -197.582,59.967L-197.646,59.942C-201.189,58.575 -204.547,56.765 -207.612,54.523C-209.528,53.121 -211.425,51.696 -213.295,50.241C-233.702,34.438 -250.837,13.864 -264.013,-8.176C-281.803,-37.934 -292.732,-69.01 -301.108,-103.785L-258.444,-119.041C-245.461,-84.337 -214.049,-58.002 -184.113,-35.43C-184.055,-35.387 -184.006,-35.345 -183.948,-35.313C-180.848,-32.972 -177.682,-30.724 -174.437,-28.577L-166.032,-33.614C-165.94,-33.67 -165.848,-33.726 -165.755,-33.783C-146.861,-45.154 -131.797,-66.216 -116.727,-84.121C-109.887,-92.236 -101.417,-94.345 -96.051,-103.132C-94.571,-105.523 -93.149,-107.966 -91.788,-110.412C-80.561,-126.384 -60.633,-135.151 -40.24,-131.148C-12.6,-125.735 5.423,-98.94 0,-71.3" style="fill:rgb(255,204,176);fill-rule:nonzero;stroke:black;stroke-width:4.04px;stroke-linejoin:round;"/>
                    </g>
                    <g transform="matrix(0.302942,-1.07577,1.22024,0.267075,986.573,693.411)">
                        <path d="M0,-100.465C2.145,-102.733 2.112,-106.307 -0.109,-108.528C-2.33,-110.749 -5.905,-110.782 -8.172,-108.637L-8.175,-108.64L-8.221,-108.594C-8.244,-108.571 -8.27,-108.551 -8.293,-108.528C-8.328,-108.493 -8.358,-108.454 -8.392,-108.418C-8.392,-108.418 -109.929,-4.788 -118.385,3.842C-118.755,4.22 -119.056,4.659 -119.274,5.141C-119.827,6.362 -120.989,8.926 -122.07,11.313C-122.41,12.064 -122.232,12.948 -121.628,13.509C-121.024,14.07 -120.128,14.182 -119.405,13.788C-117.105,12.534 -114.658,11.199 -113.591,10.617C-113.225,10.418 -112.889,10.169 -112.592,9.878C-104.872,2.314 0.013,-100.452 0.013,-100.452L0,-100.465Z" style="fill-rule:nonzero;"/>
                    </g>
                    <g transform="matrix(0.104513,-0.944336,1.07115,0.0921393,877.557,706.569)">
                        <path d="M0,99.154C0,99.154 -1.716,86.836 -0.158,76.01C1.761,64.797 4.026,43.559 -1.64,24.337C-1.64,24.337 -4.918,16.965 -27.102,18.866C-27.102,18.866 -36.024,-9.372 -45.695,-11.651C-55.366,-13.93 -57.307,-2.331 -57.307,-2.331C-57.307,-2.331 -64.076,-5.119 -70.121,-2.735C-76.166,-0.351 -76.517,8.982 -76.517,8.982C-76.517,8.982 -93.471,-25.444 -103.205,-14.818C-110.432,-6.929 -78.114,48.998 -78.114,48.998C-78.114,48.998 -108.401,10.14 -115.486,17.136C-122.044,23.611 -90.005,69.315 -57.678,97.654L-57.679,97.654C-57.679,97.654 -46.455,109.25 -44.704,115.327L-42.151,124.598L3.667,107.312L0,99.154Z" style="fill:rgb(44,44,44);fill-rule:nonzero;stroke:black;stroke-width:4.04px;stroke-linejoin:round;"/>
                    </g>
                    <g transform="matrix(0.943833,-0.455947,-0.517178,-0.832089,1089.04,630.662)">
                        <path d="M-7.381,-13.968C-7.381,-13.968 12.088,-6.605 26.433,-13.968" style="fill:none;fill-rule:nonzero;stroke:black;stroke-width:4.04px;stroke-linecap:round;stroke-linejoin:round;stroke-miterlimit:10;"/>
                    </g>
                </g>
                <g transform="matrix(0.557521,0,0,0.486633,43.0358,19.3291)">
                    <path d="M1697.05,1034.74C1697.05,1034.74 1671.35,874.483 1828.25,901.975C1828.25,901.975 1892.96,909.015 1959.53,1041.77C1963.12,1048.93 1961.68,1057.63 1955.97,1063.21C1923.18,1095.19 1815.75,1198.47 1801.74,1193.68C1776.88,1185.19 1706.86,1111.55 1697.05,1034.74Z" style="fill:rgb(255,86,33);stroke:black;stroke-width:7.84px;stroke-linecap:round;stroke-linejoin:round;stroke-miterlimit:1.5;"/>
                </g>
            </g>
            <g transform="matrix(1,0,0,1,0,-2.55491)">
                <g transform="matrix(0.579603,0,0,0.510981,0,0)">
                    <path d="M1236.88,1007.88C1236.88,1007.88 1249.73,1044.46 1247.26,1083.02C1244.79,1121.58 1341.3,972.283 1341.3,972.283C1341.3,972.283 1268.51,982.473 1236.88,1007.88Z" style="fill:rgb(255,86,33);stroke:black;stroke-width:7.5px;stroke-linecap:round;stroke-linejoin:round;stroke-miterlimit:1.5;"/>
                </g>
                <g transform="matrix(0.579105,-0.0211776,0.0240216,0.510542,-19.3096,31.7198)">
                    <path d="M1288.69,1494.05C1288.69,1494.05 1270.64,1485.88 1267.37,1484.09C1121.38,1404.02 1161.34,1100.03 1311.68,970.087C1311.68,970.087 1390.66,904.288 1485.95,876.621C1485.74,878.627 1485.49,880.649 1485.21,882.686C1456.83,1089.73 1388.16,1072.56 1311.68,1211.96C1235.21,1351.37 1288.69,1494.05 1288.69,1494.05Z" style="fill:rgb(255,86,33);stroke:black;stroke-width:7.5px;stroke-linecap:round;stroke-linejoin:round;stroke-miterlimit:1.5;"/>
                </g>
                <g transform="matrix(0.579603,0,0,0.510981,0,0)">
                    <path d="M1251.95,1077.57C1251.95,1077.57 1324.37,1095.92 1362.99,1147.09" style="fill:none;stroke:black;stroke-width:7.5px;stroke-linecap:round;stroke-linejoin:round;stroke-miterlimit:1.5;"/>
                </g>
            </g>
            <g transform="matrix(1,0,0,1,-4.72736,8.99405)">
                <g transform="matrix(0.579603,0,0,0.510981,-23.3135,-692.44)">
                    <path d="M1691.94,2247.9C1595.89,2330.74 1553.72,2259.86 1553.72,2259.86L1553.72,2184.78L1672.44,2184.78L1691.94,2247.9Z" style="fill:rgb(255,204,176);stroke:black;stroke-width:7.5px;stroke-linecap:round;stroke-linejoin:round;stroke-miterlimit:1.5;"/>
                </g>
                <g transform="matrix(0.579603,0,0,0.510981,4.72736,-12.1292)">
                    <path d="M1505.34,874.817C1505.34,874.817 1553.42,887.999 1600.88,872.9C1600.88,872.9 1585.9,915.666 1505.34,915.666L1505.34,874.817Z"/>
                </g>
                <g transform="matrix(0.579603,0,0,0.510981,-23.3135,-692.44)">
                    <path d="M1756.86,2093.75C1736.52,2170.85 1672.15,2227.24 1595.97,2227.24C1503.47,2227.24 1428.38,2144.11 1428.38,2041.71C1428.38,1939.32 1503.47,1856.19 1595.97,1856.19C1684.46,1856.19 1757.03,1932.28 1763.14,2028.54C1763.28,2028.54 1763.41,2028.54 1763.55,2028.54C1781.74,2028.54 1796.5,2043.3 1796.5,2061.49C1796.5,2079.67 1781.74,2094.43 1763.55,2094.43C1761.26,2094.43 1759.02,2094.2 1756.86,2093.75Z" style="fill:rgb(255,204,176);stroke:black;stroke-width:7.5px;stroke-linecap:round;stroke-linejoin:round;stroke-miterlimit:1.5;"/>
                </g>
                <g transform="matrix(0.579603,0,0,0.510981,384.788,-544.427)">
                    <path d="M651.958,1707.64C651.958,1707.64 687.727,1747.08 768.465,1734.31C768.465,1734.31 798.978,1639.93 824.967,1637.33C824.967,1637.33 905.765,1798.65 1076.74,1714.63C1089.57,1708.33 981.104,1490.68 812.908,1552.43C812.908,1552.43 671.756,1548.44 651.958,1707.64Z" style="fill:rgb(8,6,5);"/>
                </g>
                <g>
                    <g transform="matrix(0.441377,0,0,0.389121,468.992,-336.449)">
                        <circle cx="813.238" cy="1784.55" r="22.021" style="fill:rgb(8,6,5);"/>
                    </g>
                    <g transform="matrix(0.441377,0,0,0.389121,536.84,-336.449)">
                        <circle cx="813.238" cy="1784.55" r="22.021" style="fill:rgb(8,6,5);"/>
                    </g>
                    <g transform="matrix(0.746951,0.571471,-0.648215,0.658517,489.55,-285.716)">
                        <path d="M768.337,275.678C768.337,266.957 775.417,259.876 784.139,259.876" style="fill:none;stroke:rgb(8,6,5);stroke-width:5.86px;stroke-linecap:round;stroke-linejoin:round;stroke-miterlimit:1.5;"/>
                    </g>
                    <g transform="matrix(0.746951,0.571471,-0.648215,0.658517,417.874,-285.716)">
                        <path d="M768.337,275.678C768.337,266.957 775.417,259.876 784.139,259.876" style="fill:none;stroke:rgb(8,6,5);stroke-width:5.86px;stroke-linecap:round;stroke-linejoin:round;stroke-miterlimit:1.5;"/>
                    </g>
                    <g transform="matrix(0.228908,0,0,0.198811,786.025,48.6037)">
                        <path d="M310.925,1764.77C310.925,1811.16 348.532,1848.77 394.923,1848.77C441.314,1848.77 478.922,1811.16 478.922,1764.77L394.923,1764.77L310.925,1764.77Z" style="fill:rgb(8,6,5);"/>
                    </g>
                    <g transform="matrix(0.523329,0,0,0.687649,430.898,-849.401)">
                        <path d="M819.385,1755.45C819.385,1755.45 813.894,1780 810.664,1796.47" style="fill:none;stroke:rgb(225,130,181);stroke-width:8.73px;stroke-linecap:round;stroke-linejoin:round;stroke-miterlimit:1.5;"/>
                    </g>
                </g>
            </g>
        </g>
    </g>
</svg>
