<?xml version="1.0" encoding="UTF-8" standalone="no"?>
<!DOCTYPE svg PUBLIC "-//W3C//DTD SVG 1.1//EN" "http://www.w3.org/Graphics/SVG/1.1/DTD/svg11.dtd">
<svg width="100%" height="100%" viewBox="0 0 1900 1900" version="1.1" xmlns="http://www.w3.org/2000/svg" xmlns:xlink="http://www.w3.org/1999/xlink" xml:space="preserve" xmlns:serif="http://www.serif.com/" style="fill-rule:evenodd;clip-rule:evenodd;stroke-linecap:round;stroke-linejoin:round;stroke-miterlimit:1.5;">
    <g transform="matrix(1,0,0,1,0,-2298.45)">
        <g id="references">
        </g>
        <g id="color-palette" serif:id="color palette">
        </g>
        <g id="briefing" transform="matrix(1,0,0,1,-4215.97,2298.45)">
            <rect x="4215.97" y="0" width="1900" height="1900" style="fill:none;"/>
            <g transform="matrix(1.68465,-0.23827,0.23827,1.68465,2887.5,-4234.34)">
                <path d="M962.902,3422.62L568.45,3422.62C480.861,3422.62 452.553,3347.53 443.449,3302.38C441.796,3294.22 443.896,3285.74 449.169,3279.29C454.441,3272.85 462.33,3269.11 470.659,3269.11C547.699,3269.1 744.463,3269.1 814.178,3269.1C827.865,3269.1 839.516,3279.06 841.641,3292.58C848.525,3335.59 874.114,3422.62 968.408,3422.62" style="fill:rgb(255,142,0);stroke:black;stroke-width:4.41px;"/>
            </g>
            <g transform="matrix(1.68465,-0.23827,0.23827,1.68465,2887.5,-4234.34)">
                <path d="M1111.65,3152.11C1147.32,3042.25 1189.15,2940.7 1263.33,2940.7C1263.33,2940.7 1325.59,2941.75 1331.55,3123.18C1331.81,3130.71 1329,3138.03 1323.76,3143.45C1318.53,3148.87 1311.31,3151.93 1303.78,3151.93C1244.47,3151.94 1112.37,3151.94 1112.37,3151.94" style="fill:rgb(255,142,0);stroke:black;stroke-width:4.41px;"/>
            </g>
            <g transform="matrix(1,0,0,1,4215.97,-2298.45)">
                <path d="M1118.47,3599.27C959.615,3621.74 895.771,3481.22 873.927,3410.41C867.126,3388.14 845.124,3374.13 822.065,3377.39C748.802,3387.75 592.249,3409.89 453.325,3429.55L452.7,3429.15C498.21,3180.37 522.857,2855.42 692.475,2831.43L1494.58,2717.98L1494.54,2718.12C1374.04,2740.61 1328.69,2918.95 1295.33,3109.43C1255.38,3337.56 1232.61,3583.12 1118.47,3599.27Z" style="fill:rgb(255,202,40);stroke:black;stroke-width:7.5px;"/>
            </g>
            <g transform="matrix(0.221062,-0.0312661,0.00289638,0.225075,4376.74,633.57)">
                <path d="M4095.39,1425.28C4100.49,1449.48 4099.48,1475.21 4091.37,1500.16C4069.02,1568.95 3999.53,1610.88 3928.25,1598.59C3883.51,1590.87 3838.27,1609.24 3811.59,1645.97C3784.9,1682.7 3781.41,1731.4 3802.57,1771.57C3836.29,1835.56 3817.89,1914.6 3759.37,1957.12C3700.85,1999.63 3619.99,1992.71 3569.55,1940.86C3537.89,1908.32 3490.5,1896.6 3447.32,1910.62C3404.14,1924.65 3372.69,1962 3366.2,2006.93C3355.87,2078.53 3294.52,2131.66 3222.19,2131.66C3149.86,2131.66 3088.51,2078.53 3078.18,2006.93C3071.69,1962 3040.24,1924.65 2997.06,1910.62C2953.88,1896.6 2906.48,1908.32 2874.83,1940.86C2824.39,1992.71 2743.53,1999.63 2685.01,1957.12C2626.49,1914.6 2608.09,1835.56 2641.81,1771.57C2662.97,1731.4 2659.48,1682.7 2632.79,1645.97C2606.11,1609.24 2560.87,1590.87 2516.13,1598.59C2444.85,1610.88 2375.36,1568.95 2353.01,1500.16C2330.66,1431.37 2362.23,1356.6 2427.13,1324.66C2467.86,1304.6 2493.66,1263.15 2493.66,1217.75C2493.66,1172.35 2467.86,1130.89 2427.13,1110.84C2362.23,1078.89 2330.66,1004.13 2353.01,935.335C2375.36,866.543 2444.85,824.615 2516.13,836.912C2560.87,844.631 2606.11,826.256 2632.79,789.527C2659.48,752.798 2662.97,704.096 2641.81,663.932C2608.09,599.941 2626.49,520.896 2685.01,478.38C2743.53,435.865 2824.39,442.789 2874.83,494.635C2906.48,527.176 2953.88,538.901 2997.06,524.871C3040.24,510.842 3071.69,473.496 3078.18,428.562C3088.51,356.972 3149.86,303.839 3222.19,303.839C3294.52,303.839 3355.87,356.972 3366.2,428.562C3372.69,473.496 3404.14,510.842 3447.32,524.871C3490.5,538.901 3537.89,527.176 3569.55,494.635C3619.99,442.789 3700.85,435.865 3759.37,478.38C3770.72,486.626 3780.56,496.246 3788.81,506.863C3399.2,774.917 3303.41,1277.93 3303.41,1277.93C3635.18,1414.21 3899.31,1441.01 4095.39,1425.28Z" style="fill:rgb(144,221,156);stroke:black;stroke-width:35.81px;"/>
            </g>
            <g transform="matrix(1.33374,-0.0347104,-0.121925,1.25823,4326.37,-3114.16)">
                <path d="M1008.49,3159.58C976.647,3166.39 932.861,3166.95 875.958,3149.24C875.958,3149.24 882.315,3057.06 941.188,3001.05C947.623,3008.27 949.858,3019.14 946.361,3028.95C943.638,3036.58 945.115,3045.25 950.171,3051.3C955.226,3057.34 962.982,3059.72 970.17,3057.43C981.624,3053.77 993.791,3059.88 998.732,3071.77C1003.67,3083.65 999.886,3097.71 989.844,3104.76C983.541,3109.18 980.083,3117.14 980.926,3125.29C981.769,3133.43 986.767,3140.35 993.815,3143.11C1000.97,3145.93 1006.23,3152.13 1008.49,3159.58Z" style="fill:rgb(254,198,248);stroke:black;stroke-width:6.16px;"/>
            </g>
            <g transform="matrix(1.33374,-0.0347104,-0.121925,1.25823,4326.37,-3114.16)">
                <path d="M941.188,3001.05C953.268,2989.56 967.559,2979.59 984.46,2972.25C984.46,2972.25 1080.65,3015.9 1075.26,3127.21C1075.26,3127.21 1054.16,3149.82 1008.49,3159.58C1006.23,3152.13 1000.97,3145.93 993.815,3143.11C986.767,3140.35 981.769,3133.43 980.926,3125.29C980.083,3117.14 983.541,3109.18 989.844,3104.76C999.886,3097.71 1003.67,3083.65 998.732,3071.77C993.791,3059.88 981.624,3053.77 970.17,3057.43C962.982,3059.72 955.226,3057.34 950.171,3051.3C945.115,3045.25 943.638,3036.58 946.361,3028.95C949.858,3019.14 947.623,3008.27 941.188,3001.05Z" style="fill:rgb(254,198,248);stroke:black;stroke-width:6.16px;"/>
            </g>
            <g transform="matrix(2.44297,0,0,2.44297,-537.199,-5704.74)">
                <path d="M2630.84,3020.82C2632.97,3020.82 2635.01,3019.93 2636.47,3018.37C2637.92,3016.81 2638.66,3014.72 2638.51,3012.59C2634.28,2953.92 2585.35,2907.63 2525.61,2907.63C2465.86,2907.63 2416.93,2953.93 2412.72,3012.6C2412.57,3014.73 2413.31,3016.81 2414.76,3018.37C2416.21,3019.92 2418.24,3020.81 2420.37,3020.81C2455.38,3020.82 2595.79,3020.82 2630.84,3020.82Z" style="fill:rgb(162,167,255);stroke:black;stroke-width:3.07px;"/>
            </g>
            <g transform="matrix(1.70141,0,0,1.70141,3501.98,-4148.26)">
                <path d="M1395.07,3344.77C1365.36,3367 1328.47,3380.17 1288.54,3380.17C1227.84,3380.17 1174.19,3349.73 1142.03,3303.3" style="fill:none;stroke:black;stroke-width:4.41px;"/>
            </g>
            <g transform="matrix(1.70141,0,0,1.70141,3501.98,-4148.26)">
                <path d="M1280.79,3422.62C1280.31,3417.29 1280.06,3411.89 1280.06,3406.44C1280.06,3357.46 1299.88,3313.07 1331.92,3280.86" style="fill:none;stroke:black;stroke-width:4.41px;"/>
            </g>
            <g transform="matrix(0.963594,-0.930057,0.987147,1.02274,3.20589,-612.857)">
                <path d="M1528.69,3316.1C1530.61,3312.84 1534.26,3310.81 1538.22,3310.81C1542.19,3310.81 1545.84,3312.84 1547.76,3316.1C1570.63,3354.97 1628.35,3453.09 1650.64,3490.97C1652.51,3494.16 1652.45,3498.03 1650.49,3501.17C1648.54,3504.3 1644.96,3506.22 1641.1,3506.22C1595.96,3506.22 1480.6,3506.22 1435.4,3506.22C1431.53,3506.22 1427.95,3504.3 1425.98,3501.15C1424.02,3498.01 1423.96,3494.12 1425.84,3490.93C1448.14,3453.01 1505.83,3354.96 1528.69,3316.1Z" style="fill:rgb(236,110,119);stroke:black;stroke-width:5.43px;"/>
            </g>
            <g transform="matrix(0.815079,0,0,0.815079,4038.96,-1847.88)">
                <circle cx="829.756" cy="2607.97" r="120.244" style="fill:rgb(254,198,248);stroke:black;stroke-width:9.2px;"/>
            </g>
            <g transform="matrix(1.93414,0,0,1.93414,-1053,-4678.18)">
                <path d="M2872.64,2706.6C2872.64,2705.72 2873.35,2705.02 2874.22,2705.02C2875.09,2705.02 2875.8,2705.72 2875.8,2706.6L2875.97,2755.58C2875.98,2760.68 2878.02,2765.57 2881.63,2769.18C2885.24,2772.79 2890.13,2774.82 2895.23,2774.84L2944.21,2775.01C2945.08,2775.01 2945.79,2775.72 2945.79,2776.59C2945.79,2777.46 2945.08,2778.17 2944.21,2778.17L2895.23,2778.34C2890.13,2778.35 2885.24,2780.39 2881.63,2784C2878.02,2787.61 2875.98,2792.5 2875.97,2797.6L2875.8,2846.58C2875.8,2847.45 2875.09,2848.16 2874.22,2848.16C2873.35,2848.16 2872.64,2847.45 2872.64,2846.58L2872.47,2797.6C2872.45,2792.5 2870.42,2787.61 2866.81,2784C2863.2,2780.39 2858.31,2778.35 2853.2,2778.34L2804.23,2778.17C2803.35,2778.17 2802.65,2777.46 2802.65,2776.59C2802.65,2775.72 2803.35,2775.01 2804.23,2775.01L2853.2,2774.84C2858.31,2774.82 2863.2,2772.79 2866.81,2769.18C2870.42,2765.57 2872.45,2760.68 2872.47,2755.58L2872.64,2706.6Z" style="fill:url(#_Linear1);"/>
                <path d="M2868.73,2706.58C2868.74,2703.56 2871.19,2701.11 2874.22,2701.11C2877.24,2701.11 2879.7,2703.56 2879.71,2706.58L2879.87,2755.56C2879.89,2759.64 2881.51,2763.54 2884.39,2766.42C2887.27,2769.3 2891.17,2770.92 2895.24,2770.93L2944.22,2771.1C2947.25,2771.11 2949.7,2773.56 2949.7,2776.59C2949.7,2779.61 2947.25,2782.07 2944.22,2782.08L2895.24,2782.24C2891.17,2782.26 2887.27,2783.88 2884.39,2786.76C2881.51,2789.64 2879.89,2793.54 2879.87,2797.61L2879.71,2846.59C2879.7,2849.62 2877.24,2852.07 2874.22,2852.07C2871.19,2852.07 2868.74,2849.62 2868.73,2846.59L2868.56,2797.61C2868.55,2793.54 2866.92,2789.64 2864.05,2786.76C2861.17,2783.88 2857.26,2782.26 2853.19,2782.24L2804.21,2782.08C2801.19,2782.07 2798.74,2779.61 2798.74,2776.59C2798.74,2773.56 2801.19,2771.11 2804.21,2771.1L2853.19,2770.93C2857.26,2770.92 2861.17,2769.3 2864.05,2766.42C2866.92,2763.54 2868.55,2759.64 2868.56,2755.56L2868.73,2706.58ZM2872.64,2706.6L2872.47,2755.58C2872.45,2760.68 2870.42,2765.57 2866.81,2769.18C2863.2,2772.79 2858.31,2774.82 2853.2,2774.84L2804.23,2775.01C2803.35,2775.01 2802.65,2775.72 2802.65,2776.59C2802.65,2777.46 2803.35,2778.17 2804.23,2778.17L2853.2,2778.34C2858.31,2778.35 2863.2,2780.39 2866.81,2784C2870.42,2787.61 2872.45,2792.5 2872.47,2797.6L2872.64,2846.58C2872.64,2847.45 2873.35,2848.16 2874.22,2848.16C2875.09,2848.16 2875.8,2847.45 2875.8,2846.58L2875.97,2797.6C2875.98,2792.5 2878.02,2787.61 2881.63,2784C2885.24,2780.39 2890.13,2778.35 2895.23,2778.34L2944.21,2778.17C2945.08,2778.17 2945.79,2777.46 2945.79,2776.59C2945.79,2775.72 2945.08,2775.01 2944.21,2775.01L2895.23,2774.84C2890.13,2774.82 2885.24,2772.79 2881.63,2769.18C2878.02,2765.57 2875.98,2760.68 2875.97,2755.58L2875.8,2706.6C2875.8,2705.72 2875.09,2705.02 2874.22,2705.02C2873.35,2705.02 2872.64,2705.72 2872.64,2706.6Z"/>
            </g>
            <g transform="matrix(1.42192,0,0,1.42192,1701.03,-3671.24)">
                <path d="M2872.64,2706.6C2872.64,2705.72 2873.35,2705.02 2874.22,2705.02C2875.09,2705.02 2875.8,2705.72 2875.8,2706.6L2875.97,2755.58C2875.98,2760.68 2878.02,2765.57 2881.63,2769.18C2885.24,2772.79 2890.13,2774.82 2895.23,2774.84L2944.21,2775.01C2945.08,2775.01 2945.79,2775.72 2945.79,2776.59C2945.79,2777.46 2945.08,2778.17 2944.21,2778.17L2895.23,2778.34C2890.13,2778.35 2885.24,2780.39 2881.63,2784C2878.02,2787.61 2875.98,2792.5 2875.97,2797.6L2875.8,2846.58C2875.8,2847.45 2875.09,2848.16 2874.22,2848.16C2873.35,2848.16 2872.64,2847.45 2872.64,2846.58L2872.47,2797.6C2872.45,2792.5 2870.42,2787.61 2866.81,2784C2863.2,2780.39 2858.31,2778.35 2853.2,2778.34L2804.23,2778.17C2803.35,2778.17 2802.65,2777.46 2802.65,2776.59C2802.65,2775.72 2803.35,2775.01 2804.23,2775.01L2853.2,2774.84C2858.31,2774.82 2863.2,2772.79 2866.81,2769.18C2870.42,2765.57 2872.45,2760.68 2872.47,2755.58L2872.64,2706.6Z" style="fill:url(#_Linear2);"/>
                <path d="M2867.32,2706.58C2867.33,2702.78 2870.42,2699.7 2874.22,2699.7C2878.02,2699.7 2881.1,2702.78 2881.12,2706.58L2881.28,2755.56C2881.29,2759.26 2882.77,2762.8 2885.39,2765.42C2888,2768.04 2891.55,2769.51 2895.25,2769.52L2944.23,2769.69C2948.03,2769.7 2951.1,2772.79 2951.1,2776.59C2951.1,2780.39 2948.03,2783.47 2944.23,2783.49L2895.25,2783.65C2891.55,2783.66 2888,2785.14 2885.39,2787.76C2882.77,2790.37 2881.29,2793.92 2881.28,2797.62L2881.12,2846.6C2881.1,2850.4 2878.02,2853.47 2874.22,2853.47C2870.42,2853.47 2867.33,2850.4 2867.32,2846.6L2867.15,2797.62C2867.14,2793.92 2865.67,2790.37 2863.05,2787.76C2860.43,2785.14 2856.89,2783.66 2853.19,2783.65L2804.21,2783.49C2800.41,2783.47 2797.33,2780.39 2797.33,2776.59C2797.33,2772.79 2800.41,2769.7 2804.21,2769.69L2853.19,2769.52C2856.89,2769.51 2860.43,2768.04 2863.05,2765.42C2865.67,2762.8 2867.14,2759.26 2867.15,2755.56L2867.32,2706.58ZM2872.64,2706.6L2872.47,2755.58C2872.45,2760.68 2870.42,2765.57 2866.81,2769.18C2863.2,2772.79 2858.31,2774.82 2853.2,2774.84L2804.23,2775.01C2803.35,2775.01 2802.65,2775.72 2802.65,2776.59C2802.65,2777.46 2803.35,2778.17 2804.23,2778.17L2853.2,2778.34C2858.31,2778.35 2863.2,2780.39 2866.81,2784C2870.42,2787.61 2872.45,2792.5 2872.47,2797.6L2872.64,2846.58C2872.64,2847.45 2873.35,2848.16 2874.22,2848.16C2875.09,2848.16 2875.8,2847.45 2875.8,2846.58L2875.97,2797.6C2875.98,2792.5 2878.02,2787.61 2881.63,2784C2885.24,2780.39 2890.13,2778.35 2895.23,2778.34L2944.21,2778.17C2945.08,2778.17 2945.79,2777.46 2945.79,2776.59C2945.79,2775.72 2945.08,2775.01 2944.21,2775.01L2895.23,2774.84C2890.13,2774.82 2885.24,2772.79 2881.63,2769.18C2878.02,2765.57 2875.98,2760.68 2875.97,2755.58L2875.8,2706.6C2875.8,2705.72 2875.09,2705.02 2874.22,2705.02C2873.35,2705.02 2872.64,2705.72 2872.64,2706.6Z"/>
            </g>
        </g>
    </g>
    <defs>
        <linearGradient id="_Linear1" x1="0" y1="0" x2="1" y2="0" gradientUnits="userSpaceOnUse" gradientTransform="matrix(8.7647e-15,-143.138,143.138,8.7647e-15,2874.22,2848.16)"><stop offset="0" style="stop-color:rgb(166,193,253);stop-opacity:1"/><stop offset="1" style="stop-color:rgb(252,194,217);stop-opacity:1"/></linearGradient>
        <linearGradient id="_Linear2" x1="0" y1="0" x2="1" y2="0" gradientUnits="userSpaceOnUse" gradientTransform="matrix(8.7647e-15,-143.138,143.138,8.7647e-15,2874.22,2848.16)"><stop offset="0" style="stop-color:rgb(166,193,253);stop-opacity:1"/><stop offset="1" style="stop-color:rgb(252,194,217);stop-opacity:1"/></linearGradient>
    </defs>
</svg>
