<?xml version="1.0" encoding="UTF-8" standalone="no"?>
<!DOCTYPE svg PUBLIC "-//W3C//DTD SVG 1.1//EN" "http://www.w3.org/Graphics/SVG/1.1/DTD/svg11.dtd">
<svg width="100%" height="100%" viewBox="0 0 1900 1900" version="1.1" xmlns="http://www.w3.org/2000/svg" xmlns:xlink="http://www.w3.org/1999/xlink" xml:space="preserve" xmlns:serif="http://www.serif.com/" style="fill-rule:evenodd;clip-rule:evenodd;stroke-linecap:round;stroke-linejoin:round;stroke-miterlimit:1.5;">
    <g transform="matrix(1,0,0,1,-4031.5,-2298.45)">
        <g id="references">
        </g>
        <g id="color-palette" serif:id="color palette">
        </g>
        <g id="delivery" transform="matrix(1,0,0,1,-184.466,2298.45)">
            <rect x="4215.97" y="0" width="1900" height="1900" style="fill:none;"/>
            <g transform="matrix(1.81796,0,0,1.81796,-3786.4,-4693.1)">
                <path d="M5119.06,3179.16L4687.7,3179.16L4623.56,3525.6C4622.77,3529.87 4623.91,3534.27 4626.69,3537.61C4629.47,3540.95 4633.59,3542.88 4637.93,3542.88L5104.42,3542.88C5112.51,3542.88 5119.06,3536.33 5119.06,3528.25L5119.06,3427.44C5044.69,3427.44 4980.84,3382.02 4953.77,3317.43L5119.06,3317.43L5119.06,3179.16Z" style="fill:rgb(255,202,40);stroke:black;stroke-width:4.13px;"/>
            </g>
            <g transform="matrix(1,0,0,1,184.466,-2298.45)">
                <path d="M4773.47,3384.95L4651.3,4046.18L4460.72,4046.18C4452.82,4046.18 4445.34,4042.67 4440.29,4036.6C4435.24,4030.53 4433.15,4022.53 4434.59,4014.76L4551.2,3384.95L4773.47,3384.95Z" style="fill:rgb(255,180,0);stroke:black;stroke-width:7.5px;"/>
            </g>
            <g transform="matrix(1.28319,0,0.132855,1.81796,-1709.12,-4693.1)">
                <path d="M4583.4,3305.43C4581.21,3308.08 4580.94,3311.14 4582.68,3313.56C4584.43,3315.98 4587.94,3317.43 4592.04,3317.43L4742.13,3317.43C4760.78,3317.43 4779.06,3308.99 4787.49,3296.49C4813.54,3257.83 4866.56,3179.16 4866.56,3179.16L4687.74,3179.16C4687.74,3179.16 4611.18,3271.81 4583.4,3305.43Z" style="fill:rgb(255,142,0);stroke:black;stroke-width:4.6px;"/>
            </g>
            <g transform="matrix(-2.2649,0,-1.09202,1.81796,19617.2,-4693.1)">
                <path d="M4757.47,3317.43L4825.82,3317.43C4837.87,3317.43 4853.32,3307.13 4863.16,3292.53L4939.56,3179.16L4824.14,3179.16C4821.04,3200.44 4813.73,3223.8 4801.92,3248.3C4790.11,3272.8 4774.89,3296.16 4757.47,3317.43Z" style="fill:rgb(255,142,0);stroke:black;stroke-width:2.78px;"/>
            </g>
            <g transform="matrix(1.81796,0,0,1.81796,-3830.62,-4727.44)">
                <path d="M4978.09,3336.32C4969.17,3315.05 4964.24,3291.69 4964.24,3267.19C4964.24,3242.69 4969.17,3219.33 4978.09,3198.05L5144.32,3198.05L5200.49,3321.35C5201.98,3324.62 5201.7,3328.43 5199.76,3331.46C5197.81,3334.49 5194.45,3336.32 5190.85,3336.32L4978.09,3336.32Z" style="fill:rgb(255,142,0);stroke:black;stroke-width:4.13px;"/>
            </g>
            <g transform="matrix(1.81796,0,0,1.81796,-3830.62,-4727.44)">
                <path d="M5143.38,3446.33C5069.01,3446.33 5005.16,3400.91 4978.09,3336.32L5143.38,3336.32L5143.38,3446.33Z" style="fill:rgb(255,202,40);stroke:black;stroke-width:4.13px;"/>
            </g>
            <g transform="matrix(1.81796,0,0,1.81796,-3830.62,-4727.44)">
                <path d="M4978.09,3198.05C5005.16,3133.46 5069.01,3088.05 5143.38,3088.05C5242.25,3088.05 5322.52,3168.32 5322.52,3267.19C5322.52,3366.06 5242.25,3446.33 5143.38,3446.33L5143.38,3336.32L5190.85,3336.32C5194.45,3336.32 5197.81,3334.49 5199.76,3331.46C5201.7,3328.43 5201.98,3324.62 5200.49,3321.35L5144.32,3198.05L4978.09,3198.05Z" style="fill:rgb(162,167,255);stroke:black;stroke-width:4.13px;"/>
            </g>
            <g transform="matrix(1.87731,0,0,2.94851,-4010.55,-8346.05)">
                <path d="M4773.49,3035.45C4777.55,3035.84 4781.64,3036.39 4785.74,3037.1C4823.57,3043.61 4863.4,3063.9 4897.74,3107.11C4899.07,3108.78 4898.02,3110.82 4895.39,3111.66C4892.77,3112.51 4889.56,3111.84 4888.23,3110.17C4855.78,3069.34 4818.71,3049.8 4782.96,3043.64C4779.53,3043.05 4776.11,3042.59 4772.72,3042.24C4768.25,3070.62 4748.7,3095.81 4724.21,3110.71C4699.49,3125.74 4669.82,3130.44 4644.63,3119.1C4636.34,3115.37 4632.11,3109.85 4631.51,3103.28C4630.7,3094.43 4636.79,3083.47 4648.32,3072.92C4670.94,3052.21 4714.3,3033.06 4762.9,3034.75C4763.5,3025.3 4762.29,3015.56 4758.89,3005.81C4749.79,2979.69 4715.77,2968.38 4678.57,2963.93C4620.65,2957.02 4554.63,2966.7 4554.63,2966.7C4551.76,2967.12 4548.9,2965.97 4548.24,2964.15C4547.59,2962.33 4549.38,2960.51 4552.24,2960.09C4552.24,2960.09 4620.58,2950.11 4680.53,2957.27C4721.92,2962.21 4759.16,2975.27 4769.29,3004.34C4772.95,3014.83 4774.2,3025.3 4773.49,3035.45ZM4762.17,3041.51C4717.55,3039.97 4677.84,3057.77 4657.06,3076.79C4648.7,3084.44 4643.39,3092.29 4642.3,3099.16C4641.33,3105.17 4643.69,3110.38 4650.78,3113.56C4671.76,3123.01 4696.26,3118.33 4716.85,3105.8C4739.84,3091.82 4758.03,3068.16 4762.17,3041.51Z" style="fill:rgb(254,198,248);"/>
                <path d="M4777.61,3033.31C4780.65,3033.67 4783.71,3034.11 4786.78,3034.64C4825.39,3041.29 4866.25,3061.86 4901.3,3105.96C4903.63,3108.88 4901.79,3112.45 4897.19,3113.93C4892.61,3115.41 4886.99,3114.24 4884.67,3111.32C4852.92,3071.38 4816.89,3052.12 4781.92,3046.1C4780.01,3045.77 4778.11,3045.48 4776.21,3045.23C4770.85,3073.16 4751.24,3097.78 4726.97,3112.55C4700.7,3128.53 4669.09,3133.23 4642.32,3121.18C4633.01,3116.99 4628.19,3110.81 4627.52,3103.43C4626.67,3094.12 4632.92,3082.56 4645.04,3071.47C4667.7,3050.72 4710.62,3031.55 4759.03,3032.12C4759.26,3023.68 4758.01,3015.03 4754.99,3006.36C4746.27,2981.34 4713.46,2970.69 4677.83,2966.43C4620.68,2959.61 4555.53,2969.18 4555.53,2969.18L4555.52,2969.18C4550.51,2969.91 4545.5,2967.91 4544.35,2964.72C4543.2,2961.53 4546.33,2958.34 4551.35,2957.61L4551.35,2957.61C4551.35,2957.61 4620.56,2947.52 4681.27,2954.77C4724.23,2959.9 4762.68,2973.62 4773.19,3003.79C4776.66,3013.73 4778.01,3023.65 4777.61,3033.31ZM4773.49,3035.45C4774.2,3025.3 4772.95,3014.83 4769.29,3004.34C4759.16,2975.27 4721.92,2962.21 4680.53,2957.27C4620.58,2950.11 4552.24,2960.09 4552.24,2960.09C4549.38,2960.51 4547.59,2962.33 4548.24,2964.15C4548.9,2965.97 4551.76,2967.12 4554.63,2966.7C4554.63,2966.7 4620.65,2957.02 4678.57,2963.93C4715.77,2968.38 4749.79,2979.69 4758.89,3005.81C4762.29,3015.56 4763.5,3025.3 4762.9,3034.75C4714.3,3033.06 4670.94,3052.21 4648.32,3072.92C4636.79,3083.47 4630.7,3094.43 4631.51,3103.28C4632.11,3109.85 4636.34,3115.37 4644.63,3119.1C4669.82,3130.44 4699.49,3125.74 4724.21,3110.71C4748.7,3095.81 4768.25,3070.62 4772.72,3042.24C4776.11,3042.59 4779.53,3043.05 4782.96,3043.64C4818.71,3049.8 4855.78,3069.34 4888.23,3110.17C4889.56,3111.84 4892.77,3112.51 4895.39,3111.66C4898.02,3110.82 4899.07,3108.78 4897.74,3107.11C4863.4,3063.9 4823.57,3043.61 4785.74,3037.1C4781.64,3036.39 4777.55,3035.84 4773.49,3035.45ZM4762.17,3041.51C4758.03,3068.16 4739.84,3091.82 4716.85,3105.8C4696.26,3118.33 4671.76,3123.01 4650.78,3113.56C4643.69,3110.38 4641.33,3105.17 4642.3,3099.16C4643.39,3092.29 4648.7,3084.44 4657.06,3076.79C4677.84,3057.77 4717.55,3039.97 4762.17,3041.51ZM4757.72,3043.97C4716.3,3043.7 4679.78,3060.45 4660.34,3078.25C4652.42,3085.49 4647.31,3092.91 4646.27,3099.41C4645.47,3104.43 4647.18,3108.83 4653.08,3111.49C4672.49,3120.22 4695.05,3115.55 4714.09,3103.96C4735.72,3090.81 4752.93,3068.84 4757.72,3043.97Z"/>
            </g>
            <g transform="matrix(1.81796,0,0,1.81796,-3552.15,-4845.61)">
                <path d="M5014.33,2916.46L4919.75,3005.08L4954.62,3054.38L5179.46,2958.06L5159.87,2920.29C5142.35,2939.75 5116.96,2951.99 5088.73,2951.99C5058.7,2951.99 5031.88,2938.13 5014.33,2916.46Z" style="fill:rgb(255,192,7);stroke:black;stroke-width:4.13px;"/>
            </g>
            <g transform="matrix(1,0,0,1,184.466,-2298.45)">
                <path d="M5643.84,2761.82C5611.98,2797.2 5565.83,2819.46 5514.52,2819.46C5459.92,2819.46 5411.15,2794.26 5379.25,2754.86L5554.87,2590.28L5643.84,2761.82Z" style="fill:rgb(144,221,156);stroke:black;stroke-width:7.5px;"/>
            </g>
            <g transform="matrix(1,0,0,1,184.466,-2298.45)">
                <path d="M4605.14,4046.18L4460.72,4046.18C4452.82,4046.18 4445.34,4042.67 4440.29,4036.6C4435.24,4030.53 4433.15,4022.53 4434.59,4014.76L4476.48,3788.48L4605.14,4046.18Z" style="fill:rgb(254,198,248);stroke:black;stroke-width:7.5px;"/>
            </g>
            <g transform="matrix(1.53153,0,0,1.53153,125.692,-3273.61)">
                <path d="M2872.64,2706.6C2872.64,2705.72 2873.35,2705.02 2874.22,2705.02C2875.09,2705.02 2875.8,2705.72 2875.8,2706.6L2875.97,2755.58C2875.98,2760.68 2878.02,2765.57 2881.63,2769.18C2885.24,2772.79 2890.13,2774.82 2895.23,2774.84L2944.21,2775.01C2945.08,2775.01 2945.79,2775.72 2945.79,2776.59C2945.79,2777.46 2945.08,2778.17 2944.21,2778.17L2895.23,2778.34C2890.13,2778.35 2885.24,2780.39 2881.63,2784C2878.02,2787.61 2875.98,2792.5 2875.97,2797.6L2875.8,2846.58C2875.8,2847.45 2875.09,2848.16 2874.22,2848.16C2873.35,2848.16 2872.64,2847.45 2872.64,2846.58L2872.47,2797.6C2872.45,2792.5 2870.42,2787.61 2866.81,2784C2863.2,2780.39 2858.31,2778.35 2853.2,2778.34L2804.23,2778.17C2803.35,2778.17 2802.65,2777.46 2802.65,2776.59C2802.65,2775.72 2803.35,2775.01 2804.23,2775.01L2853.2,2774.84C2858.31,2774.82 2863.2,2772.79 2866.81,2769.18C2870.42,2765.57 2872.45,2760.68 2872.47,2755.58L2872.64,2706.6Z" style="fill:url(#_Linear1);"/>
                <path d="M2867.7,2706.58C2867.71,2702.99 2870.63,2700.08 2874.22,2700.08C2877.81,2700.08 2880.72,2702.99 2880.74,2706.58L2880.9,2755.56C2880.91,2759.36 2882.43,2763 2885.12,2765.69C2887.8,2768.38 2891.45,2769.89 2895.25,2769.91L2944.23,2770.07C2947.82,2770.08 2950.72,2773 2950.72,2776.59C2950.72,2780.18 2947.82,2783.1 2944.23,2783.11L2895.25,2783.27C2891.45,2783.28 2887.8,2784.8 2885.12,2787.49C2882.43,2790.18 2880.91,2793.82 2880.9,2797.62L2880.74,2846.6C2880.72,2850.19 2877.81,2853.09 2874.22,2853.09C2870.63,2853.09 2867.71,2850.19 2867.7,2846.6L2867.53,2797.62C2867.52,2793.82 2866.01,2790.18 2863.32,2787.49C2860.63,2784.8 2856.99,2783.28 2853.19,2783.27L2804.21,2783.11C2800.62,2783.1 2797.71,2780.18 2797.71,2776.59C2797.71,2773 2800.62,2770.08 2804.21,2770.07L2853.19,2769.91C2856.99,2769.89 2860.63,2768.38 2863.32,2765.69C2866.01,2763 2867.52,2759.36 2867.53,2755.56L2867.7,2706.58ZM2872.64,2706.6L2872.47,2755.58C2872.45,2760.68 2870.42,2765.57 2866.81,2769.18C2863.2,2772.79 2858.31,2774.82 2853.2,2774.84L2804.23,2775.01C2803.35,2775.01 2802.65,2775.72 2802.65,2776.59C2802.65,2777.46 2803.35,2778.17 2804.23,2778.17L2853.2,2778.34C2858.31,2778.35 2863.2,2780.39 2866.81,2784C2870.42,2787.61 2872.45,2792.5 2872.47,2797.6L2872.64,2846.58C2872.64,2847.45 2873.35,2848.16 2874.22,2848.16C2875.09,2848.16 2875.8,2847.45 2875.8,2846.58L2875.97,2797.6C2875.98,2792.5 2878.02,2787.61 2881.63,2784C2885.24,2780.39 2890.13,2778.35 2895.23,2778.34L2944.21,2778.17C2945.08,2778.17 2945.79,2777.46 2945.79,2776.59C2945.79,2775.72 2945.08,2775.01 2944.21,2775.01L2895.23,2774.84C2890.13,2774.82 2885.24,2772.79 2881.63,2769.18C2878.02,2765.57 2875.98,2760.68 2875.97,2755.58L2875.8,2706.6C2875.8,2705.72 2875.09,2705.02 2874.22,2705.02C2873.35,2705.02 2872.64,2705.72 2872.64,2706.6Z"/>
            </g>
            <g transform="matrix(1.93414,0,0,1.93414,-316.385,-4955.03)">
                <path d="M2872.64,2706.6C2872.64,2705.72 2873.35,2705.02 2874.22,2705.02C2875.09,2705.02 2875.8,2705.72 2875.8,2706.6L2875.97,2755.58C2875.98,2760.68 2878.02,2765.57 2881.63,2769.18C2885.24,2772.79 2890.13,2774.82 2895.23,2774.84L2944.21,2775.01C2945.08,2775.01 2945.79,2775.72 2945.79,2776.59C2945.79,2777.46 2945.08,2778.17 2944.21,2778.17L2895.23,2778.34C2890.13,2778.35 2885.24,2780.39 2881.63,2784C2878.02,2787.61 2875.98,2792.5 2875.97,2797.6L2875.8,2846.58C2875.8,2847.45 2875.09,2848.16 2874.22,2848.16C2873.35,2848.16 2872.64,2847.45 2872.64,2846.58L2872.47,2797.6C2872.45,2792.5 2870.42,2787.61 2866.81,2784C2863.2,2780.39 2858.31,2778.35 2853.2,2778.34L2804.23,2778.17C2803.35,2778.17 2802.65,2777.46 2802.65,2776.59C2802.65,2775.72 2803.35,2775.01 2804.23,2775.01L2853.2,2774.84C2858.31,2774.82 2863.2,2772.79 2866.81,2769.18C2870.42,2765.57 2872.45,2760.68 2872.47,2755.58L2872.64,2706.6Z" style="fill:url(#_Linear2);"/>
                <path d="M2868.73,2706.58C2868.74,2703.56 2871.19,2701.11 2874.22,2701.11C2877.24,2701.11 2879.7,2703.56 2879.71,2706.58L2879.87,2755.56C2879.89,2759.64 2881.51,2763.54 2884.39,2766.42C2887.27,2769.3 2891.17,2770.92 2895.24,2770.93L2944.22,2771.1C2947.25,2771.11 2949.7,2773.56 2949.7,2776.59C2949.7,2779.61 2947.25,2782.07 2944.22,2782.08L2895.24,2782.24C2891.17,2782.26 2887.27,2783.88 2884.39,2786.76C2881.51,2789.64 2879.89,2793.54 2879.87,2797.61L2879.71,2846.59C2879.7,2849.62 2877.24,2852.07 2874.22,2852.07C2871.19,2852.07 2868.74,2849.62 2868.73,2846.59L2868.56,2797.61C2868.55,2793.54 2866.92,2789.64 2864.05,2786.76C2861.17,2783.88 2857.26,2782.26 2853.19,2782.24L2804.21,2782.08C2801.19,2782.07 2798.74,2779.61 2798.74,2776.59C2798.74,2773.56 2801.19,2771.11 2804.21,2771.1L2853.19,2770.93C2857.26,2770.92 2861.17,2769.3 2864.05,2766.42C2866.92,2763.54 2868.55,2759.64 2868.56,2755.56L2868.73,2706.58ZM2872.64,2706.6L2872.47,2755.58C2872.45,2760.68 2870.42,2765.57 2866.81,2769.18C2863.2,2772.79 2858.31,2774.82 2853.2,2774.84L2804.23,2775.01C2803.35,2775.01 2802.65,2775.72 2802.65,2776.59C2802.65,2777.46 2803.35,2778.17 2804.23,2778.17L2853.2,2778.34C2858.31,2778.35 2863.2,2780.39 2866.81,2784C2870.42,2787.61 2872.45,2792.5 2872.47,2797.6L2872.64,2846.58C2872.64,2847.45 2873.35,2848.16 2874.22,2848.16C2875.09,2848.16 2875.8,2847.45 2875.8,2846.58L2875.97,2797.6C2875.98,2792.5 2878.02,2787.61 2881.63,2784C2885.24,2780.39 2890.13,2778.35 2895.23,2778.34L2944.21,2778.17C2945.08,2778.17 2945.79,2777.46 2945.79,2776.59C2945.79,2775.72 2945.08,2775.01 2944.21,2775.01L2895.23,2774.84C2890.13,2774.82 2885.24,2772.79 2881.63,2769.18C2878.02,2765.57 2875.98,2760.68 2875.97,2755.58L2875.8,2706.6C2875.8,2705.72 2875.09,2705.02 2874.22,2705.02C2873.35,2705.02 2872.64,2705.72 2872.64,2706.6Z"/>
            </g>
        </g>
    </g>
    <defs>
        <linearGradient id="_Linear1" x1="0" y1="0" x2="1" y2="0" gradientUnits="userSpaceOnUse" gradientTransform="matrix(8.7647e-15,-143.138,143.138,8.7647e-15,2874.22,2848.16)"><stop offset="0" style="stop-color:rgb(166,193,253);stop-opacity:1"/><stop offset="1" style="stop-color:rgb(252,194,217);stop-opacity:1"/></linearGradient>
        <linearGradient id="_Linear2" x1="0" y1="0" x2="1" y2="0" gradientUnits="userSpaceOnUse" gradientTransform="matrix(8.7647e-15,-143.138,143.138,8.7647e-15,2874.22,2848.16)"><stop offset="0" style="stop-color:rgb(166,193,253);stop-opacity:1"/><stop offset="1" style="stop-color:rgb(252,194,217);stop-opacity:1"/></linearGradient>
    </defs>
</svg>
