<?xml version="1.0" encoding="UTF-8" standalone="no"?>
<!DOCTYPE svg PUBLIC "-//W3C//DTD SVG 1.1//EN" "http://www.w3.org/Graphics/SVG/1.1/DTD/svg11.dtd">
<svg width="100%" height="100%" viewBox="0 0 1900 1900" version="1.1" xmlns="http://www.w3.org/2000/svg" xmlns:xlink="http://www.w3.org/1999/xlink" xml:space="preserve" xmlns:serif="http://www.serif.com/" style="fill-rule:evenodd;clip-rule:evenodd;stroke-linecap:round;stroke-linejoin:round;stroke-miterlimit:1.5;">
    <g transform="matrix(1,0,0,1,-2020.33,-2298.45)">
        <g id="references">
        </g>
        <g id="color-palette" serif:id="color palette">
        </g>
        <g id="design" transform="matrix(1,0,0,1,-2195.64,2298.45)">
            <rect x="4215.97" y="0" width="1900" height="1900" style="fill:none;"/>
            <g transform="matrix(1.89578,0.38328,-0.38328,1.89578,944.771,-6022.42)">
                <path d="M2674.87,3227.74C2673.9,3219.96 2673.58,3211.22 2674.04,3201.44C2676.59,3147.88 2703.78,3105.74 2735.61,3074.53C2782.86,3028.18 2840.24,3006.04 2840.24,3006.04C2842.9,3005.01 2845.89,3006.34 2846.92,3009C2847.95,3011.66 2846.62,3014.66 2843.96,3015.69C2843.96,3015.69 2788.52,3037.11 2742.85,3081.91C2712.72,3111.46 2686.79,3151.24 2684.37,3201.93C2684.1,3207.68 2684.1,3213.02 2684.36,3217.98C2694.07,3208.83 2704.15,3201.73 2713.93,3196.96C2739.13,3184.66 2762.53,3187.28 2775.08,3206.62C2789.71,3229.19 2780.98,3252.88 2763.32,3267.8C2745.93,3282.48 2720.02,3288.19 2700.55,3276.06C2690.43,3269.76 2681.8,3258.48 2677.26,3240.64C2642.84,3283.01 2619.22,3354.93 2645.37,3441.29C2646.2,3444.02 2644.65,3446.91 2641.92,3447.74C2639.19,3448.56 2636.3,3447.02 2635.47,3444.28C2606.76,3349.46 2635.77,3271.41 2674.87,3227.74ZM2685.73,3231.03C2688.82,3249.66 2696.29,3261.23 2706.01,3267.29C2721.75,3277.09 2742.59,3271.76 2756.65,3259.9C2770.43,3248.25 2777.83,3229.87 2766.4,3212.25C2756.61,3197.16 2738.13,3196.65 2718.47,3206.25C2707.55,3211.58 2696.31,3219.97 2685.73,3231.03Z" style="fill:rgb(255,142,0);"/>
                <path d="M2670.81,3226.47C2669.98,3218.94 2669.73,3210.56 2670.17,3201.25C2672.77,3146.62 2700.42,3103.6 2732.89,3071.76C2780.67,3024.9 2838.67,3002.49 2838.84,3002.43C2843.5,3000.63 2848.74,3002.95 2850.54,3007.61C2852.34,3012.26 2850.02,3017.51 2845.36,3019.31C2845.36,3019.31 2790.65,3040.46 2745.56,3084.68C2716.08,3113.6 2690.61,3152.49 2688.24,3202.11C2688.12,3204.66 2688.06,3207.12 2688.05,3209.5C2696.07,3202.75 2704.25,3197.37 2712.23,3193.47C2739.51,3180.16 2764.74,3183.57 2778.33,3204.51C2794.17,3228.94 2784.93,3254.62 2765.82,3270.76C2747.18,3286.5 2719.37,3292.35 2698.5,3279.36C2689.15,3273.54 2680.91,3263.8 2675.71,3248.96C2644.46,3291.17 2624.57,3359.22 2649.08,3440.16C2650.53,3444.94 2647.83,3450 2643.05,3451.45C2638.27,3452.89 2633.21,3450.19 2631.76,3445.41C2602.84,3349.89 2631.63,3271.13 2670.81,3226.47ZM2674.87,3227.74C2635.77,3271.41 2606.76,3349.46 2635.47,3444.28C2636.3,3447.02 2639.19,3448.56 2641.92,3447.74C2644.65,3446.91 2646.2,3444.02 2645.37,3441.29C2619.22,3354.93 2642.84,3283.01 2677.26,3240.64C2681.8,3258.48 2690.43,3269.76 2700.55,3276.06C2720.02,3288.19 2745.93,3282.48 2763.32,3267.8C2780.98,3252.88 2789.71,3229.19 2775.08,3206.62C2762.53,3187.28 2739.13,3184.66 2713.93,3196.96C2704.15,3201.73 2694.07,3208.83 2684.36,3217.98C2684.1,3213.02 2684.1,3207.68 2684.37,3201.93C2686.79,3151.24 2712.72,3111.46 2742.85,3081.91C2788.52,3037.11 2843.96,3015.69 2843.96,3015.69C2846.62,3014.66 2847.95,3011.66 2846.92,3009C2845.89,3006.34 2842.9,3005.01 2840.24,3006.04C2840.24,3006.04 2782.86,3028.18 2735.61,3074.53C2703.78,3105.74 2676.59,3147.88 2674.04,3201.44C2673.58,3211.22 2673.9,3219.96 2674.87,3227.74ZM2685.73,3231.03C2696.31,3219.97 2707.55,3211.58 2718.47,3206.25C2738.13,3196.65 2756.61,3197.16 2766.4,3212.25C2777.83,3229.87 2770.43,3248.25 2756.65,3259.9C2742.59,3271.76 2721.75,3277.09 2706.01,3267.29C2696.29,3261.23 2688.82,3249.66 2685.73,3231.03ZM2689.89,3232.3C2692.92,3248.4 2699.42,3258.62 2708.06,3263.99C2722.4,3272.92 2741.34,3267.75 2754.15,3256.93C2766.48,3246.52 2773.37,3230.12 2763.15,3214.36C2754.38,3200.85 2737.76,3201.14 2720.17,3209.73C2710.08,3214.66 2699.72,3222.3 2689.89,3232.3Z"/>
            </g>
            <g transform="matrix(1.33366,-0.0676211,0.0676211,1.33366,625.688,-2316.04)">
                <path d="M2871.88,2998.74C2871.88,2995.15 2868.96,2992.23 2865.36,2992.23L2834.96,2992.23C2831.36,2992.23 2828.44,2995.15 2828.44,2998.74L2828.44,3029.15C2828.44,3032.74 2831.36,3035.66 2834.96,3035.66L2865.36,3035.66C2868.96,3035.66 2871.88,3032.74 2871.88,3029.15L2871.88,2998.74Z" style="fill:rgb(254,198,248);stroke:black;stroke-width:5.62px;"/>
            </g>
            <g transform="matrix(1.28481,-0.363972,0.363972,1.28481,421.451,-2064.41)">
                <path d="M2871.88,2998.74C2871.88,2995.15 2868.96,2992.23 2865.36,2992.23L2834.96,2992.23C2831.36,2992.23 2828.44,2995.15 2828.44,2998.74L2828.44,3029.15C2828.44,3032.74 2831.36,3035.66 2834.96,3035.66L2865.36,3035.66C2868.96,3035.66 2871.88,3032.74 2871.88,3029.15L2871.88,2998.74Z" style="fill:rgb(254,198,248);stroke:black;stroke-width:5.62px;"/>
            </g>
            <g transform="matrix(0.945353,0.943145,-0.943145,0.945353,5092.83,-4327.18)">
                <path d="M2871.88,2998.74C2871.88,2995.15 2868.96,2992.23 2865.36,2992.23L2834.96,2992.23C2831.36,2992.23 2828.44,2995.15 2828.44,2998.74L2828.44,3029.15C2828.44,3032.74 2831.36,3035.66 2834.96,3035.66L2865.36,3035.66C2868.96,3035.66 2871.88,3032.74 2871.88,3029.15L2871.88,2998.74Z" style="fill:rgb(254,198,248);stroke:black;stroke-width:5.62px;"/>
            </g>
            <g transform="matrix(1.77378,-1.77378,1.77378,1.77378,-5132.92,-20.1578)">
                <path d="M2626.43,3020.82C2629.78,3020.82 2632.96,3019.39 2635.19,3016.88C2637.41,3014.38 2638.46,3011.05 2638.07,3007.72C2631.55,2951.38 2583.69,2907.63 2525.61,2907.63C2467.53,2907.63 2419.66,2951.38 2413.17,3007.72C2412.78,3011.04 2413.82,3014.37 2416.04,3016.87C2418.26,3019.37 2421.45,3020.8 2424.79,3020.8C2464.27,3020.82 2586.95,3020.82 2626.43,3020.82Z" style="fill:rgb(162,167,255);stroke:black;stroke-width:2.99px;"/>
            </g>
            <g transform="matrix(1.93414,0,0,1.93414,-367.289,-5052.57)">
                <path d="M2872.64,2706.6C2872.64,2705.72 2873.35,2705.02 2874.22,2705.02C2875.09,2705.02 2875.8,2705.72 2875.8,2706.6L2875.97,2755.58C2875.98,2760.68 2878.02,2765.57 2881.63,2769.18C2885.24,2772.79 2890.13,2774.82 2895.23,2774.84L2944.21,2775.01C2945.08,2775.01 2945.79,2775.72 2945.79,2776.59C2945.79,2777.46 2945.08,2778.17 2944.21,2778.17L2895.23,2778.34C2890.13,2778.35 2885.24,2780.39 2881.63,2784C2878.02,2787.61 2875.98,2792.5 2875.97,2797.6L2875.8,2846.58C2875.8,2847.45 2875.09,2848.16 2874.22,2848.16C2873.35,2848.16 2872.64,2847.45 2872.64,2846.58L2872.47,2797.6C2872.45,2792.5 2870.42,2787.61 2866.81,2784C2863.2,2780.39 2858.31,2778.35 2853.2,2778.34L2804.23,2778.17C2803.35,2778.17 2802.65,2777.46 2802.65,2776.59C2802.65,2775.72 2803.35,2775.01 2804.23,2775.01L2853.2,2774.84C2858.31,2774.82 2863.2,2772.79 2866.81,2769.18C2870.42,2765.57 2872.45,2760.68 2872.47,2755.58L2872.64,2706.6Z" style="fill:url(#_Linear1);"/>
                <path d="M2868.73,2706.58C2868.74,2703.56 2871.19,2701.11 2874.22,2701.11C2877.24,2701.11 2879.7,2703.56 2879.71,2706.58L2879.87,2755.56C2879.89,2759.64 2881.51,2763.54 2884.39,2766.42C2887.27,2769.3 2891.17,2770.92 2895.24,2770.93L2944.22,2771.1C2947.25,2771.11 2949.7,2773.56 2949.7,2776.59C2949.7,2779.61 2947.25,2782.07 2944.22,2782.08L2895.24,2782.24C2891.17,2782.26 2887.27,2783.88 2884.39,2786.76C2881.51,2789.64 2879.89,2793.54 2879.87,2797.61L2879.71,2846.59C2879.7,2849.62 2877.24,2852.07 2874.22,2852.07C2871.19,2852.07 2868.74,2849.62 2868.73,2846.59L2868.56,2797.61C2868.55,2793.54 2866.92,2789.64 2864.05,2786.76C2861.17,2783.88 2857.26,2782.26 2853.19,2782.24L2804.21,2782.08C2801.19,2782.07 2798.74,2779.61 2798.74,2776.59C2798.74,2773.56 2801.19,2771.11 2804.21,2771.1L2853.19,2770.93C2857.26,2770.92 2861.17,2769.3 2864.05,2766.42C2866.92,2763.54 2868.55,2759.64 2868.56,2755.56L2868.73,2706.58ZM2872.64,2706.6L2872.47,2755.58C2872.45,2760.68 2870.42,2765.57 2866.81,2769.18C2863.2,2772.79 2858.31,2774.82 2853.2,2774.84L2804.23,2775.01C2803.35,2775.01 2802.65,2775.72 2802.65,2776.59C2802.65,2777.46 2803.35,2778.17 2804.23,2778.17L2853.2,2778.34C2858.31,2778.35 2863.2,2780.39 2866.81,2784C2870.42,2787.61 2872.45,2792.5 2872.47,2797.6L2872.64,2846.58C2872.64,2847.45 2873.35,2848.16 2874.22,2848.16C2875.09,2848.16 2875.8,2847.45 2875.8,2846.58L2875.97,2797.6C2875.98,2792.5 2878.02,2787.61 2881.63,2784C2885.24,2780.39 2890.13,2778.35 2895.23,2778.34L2944.21,2778.17C2945.08,2778.17 2945.79,2777.46 2945.79,2776.59C2945.79,2775.72 2945.08,2775.01 2944.21,2775.01L2895.23,2774.84C2890.13,2774.82 2885.24,2772.79 2881.63,2769.18C2878.02,2765.57 2875.98,2760.68 2875.97,2755.58L2875.8,2706.6C2875.8,2705.72 2875.09,2705.02 2874.22,2705.02C2873.35,2705.02 2872.64,2705.72 2872.64,2706.6Z"/>
            </g>
            <g transform="matrix(1.42192,0,0,1.42192,915.954,-2291.89)">
                <path d="M2872.64,2706.6C2872.64,2705.72 2873.35,2705.02 2874.22,2705.02C2875.09,2705.02 2875.8,2705.72 2875.8,2706.6L2875.97,2755.58C2875.98,2760.68 2878.02,2765.57 2881.63,2769.18C2885.24,2772.79 2890.13,2774.82 2895.23,2774.84L2944.21,2775.01C2945.08,2775.01 2945.79,2775.72 2945.79,2776.59C2945.79,2777.46 2945.08,2778.17 2944.21,2778.17L2895.23,2778.34C2890.13,2778.35 2885.24,2780.39 2881.63,2784C2878.02,2787.61 2875.98,2792.5 2875.97,2797.6L2875.8,2846.58C2875.8,2847.45 2875.09,2848.16 2874.22,2848.16C2873.35,2848.16 2872.64,2847.45 2872.64,2846.58L2872.47,2797.6C2872.45,2792.5 2870.42,2787.61 2866.81,2784C2863.2,2780.39 2858.31,2778.35 2853.2,2778.34L2804.23,2778.17C2803.35,2778.17 2802.65,2777.46 2802.65,2776.59C2802.65,2775.72 2803.35,2775.01 2804.23,2775.01L2853.2,2774.84C2858.31,2774.82 2863.2,2772.79 2866.81,2769.18C2870.42,2765.57 2872.45,2760.68 2872.47,2755.58L2872.64,2706.6Z" style="fill:url(#_Linear2);"/>
                <path d="M2867.32,2706.58C2867.33,2702.78 2870.42,2699.7 2874.22,2699.7C2878.02,2699.7 2881.1,2702.78 2881.12,2706.58L2881.28,2755.56C2881.29,2759.26 2882.77,2762.8 2885.39,2765.42C2888,2768.04 2891.55,2769.51 2895.25,2769.52L2944.23,2769.69C2948.03,2769.7 2951.1,2772.79 2951.1,2776.59C2951.1,2780.39 2948.03,2783.47 2944.23,2783.49L2895.25,2783.65C2891.55,2783.66 2888,2785.14 2885.39,2787.76C2882.77,2790.37 2881.29,2793.92 2881.28,2797.62L2881.12,2846.6C2881.1,2850.4 2878.02,2853.47 2874.22,2853.47C2870.42,2853.47 2867.33,2850.4 2867.32,2846.6L2867.15,2797.62C2867.14,2793.92 2865.67,2790.37 2863.05,2787.76C2860.43,2785.14 2856.89,2783.66 2853.19,2783.65L2804.21,2783.49C2800.41,2783.47 2797.33,2780.39 2797.33,2776.59C2797.33,2772.79 2800.41,2769.7 2804.21,2769.69L2853.19,2769.52C2856.89,2769.51 2860.43,2768.04 2863.05,2765.42C2865.67,2762.8 2867.14,2759.26 2867.15,2755.56L2867.32,2706.58ZM2872.64,2706.6L2872.47,2755.58C2872.45,2760.68 2870.42,2765.57 2866.81,2769.18C2863.2,2772.79 2858.31,2774.82 2853.2,2774.84L2804.23,2775.01C2803.35,2775.01 2802.65,2775.72 2802.65,2776.59C2802.65,2777.46 2803.35,2778.17 2804.23,2778.17L2853.2,2778.34C2858.31,2778.35 2863.2,2780.39 2866.81,2784C2870.42,2787.61 2872.45,2792.5 2872.47,2797.6L2872.64,2846.58C2872.64,2847.45 2873.35,2848.16 2874.22,2848.16C2875.09,2848.16 2875.8,2847.45 2875.8,2846.58L2875.97,2797.6C2875.98,2792.5 2878.02,2787.61 2881.63,2784C2885.24,2780.39 2890.13,2778.35 2895.23,2778.34L2944.21,2778.17C2945.08,2778.17 2945.79,2777.46 2945.79,2776.59C2945.79,2775.72 2945.08,2775.01 2944.21,2775.01L2895.23,2774.84C2890.13,2774.82 2885.24,2772.79 2881.63,2769.18C2878.02,2765.57 2875.98,2760.68 2875.97,2755.58L2875.8,2706.6C2875.8,2705.72 2875.09,2705.02 2874.22,2705.02C2873.35,2705.02 2872.64,2705.72 2872.64,2706.6Z"/>
            </g>
            <g transform="matrix(2.10461,0,0,2.10461,-867.288,-5446.75)">
                <circle cx="2999.53" cy="3256.64" r="137.51" style="fill:rgb(144,221,156);stroke:black;stroke-width:3.56px;"/>
            </g>
            <g transform="matrix(1.93414,0,0,1.93414,-293.986,-4930.66)">
                <path d="M2876.85,3395.86C2874.74,3381.55 2873.65,3366.9 2873.65,3352C2873.65,3262.59 2912.93,3182.28 2975.16,3127.4" style="fill:none;stroke:black;stroke-width:3.88px;"/>
            </g>
            <g transform="matrix(1.93414,0,0,1.93414,-293.986,-4930.66)">
                <path d="M2923.66,3419.93C2923.51,3416.74 2923.43,3413.53 2923.43,3410.31C2923.43,3307.06 3001.39,3221.88 3101.61,3210.47" style="fill:none;stroke:black;stroke-width:3.88px;"/>
            </g>
            <g transform="matrix(1.93414,0,0,1.93414,-229.442,-5043.34)">
                <path d="M3055.4,3009.76C3053.45,3010.05 3051.7,3011.11 3050.54,3012.7C3049.37,3014.28 3048.88,3016.27 3049.18,3018.22C3051.94,3036.09 3059,3081.77 3062.01,3101.26C3062.89,3106.96 3066.34,3111.94 3071.38,3114.76C3076.17,3117.45 3082.22,3120.83 3086.79,3123.39C3088.59,3124.41 3090.72,3124.66 3092.71,3124.1C3094.7,3123.53 3096.38,3122.2 3097.39,3120.4C3109.94,3097.97 3149.99,3026.34 3163.94,3001.4C3164.84,2999.78 3164.75,2997.78 3163.69,2996.26C3162.64,2994.73 3160.8,2993.93 3158.97,2994.21C3135.43,2997.74 3076.2,3006.64 3055.4,3009.76Z" style="fill:rgb(254,198,248);stroke:black;stroke-width:3.88px;"/>
            </g>
            <g transform="matrix(-1.7693,-1.7693,2.16222,-2.16222,4512.96,10829.5)">
                <path d="M2632.64,2521.94C2634.38,2520.32 2636.89,2519.39 2639.53,2519.39C2642.16,2519.39 2644.67,2520.32 2646.41,2521.94C2659.13,2533.77 2685.93,2558.71 2696.05,2568.13C2698.57,2570.47 2699.59,2573.64 2698.82,2576.69C2695.4,2590.16 2685.68,2628.47 2680.42,2649.22C2678.38,2657.23 2669.76,2662.97 2659.77,2662.97L2619.3,2662.97C2609.3,2662.97 2600.67,2657.22 2598.64,2649.21C2593.37,2628.46 2583.66,2590.16 2580.24,2576.69C2579.47,2573.64 2580.49,2570.47 2583,2568.13C2593.13,2558.71 2619.93,2533.77 2632.64,2521.94Z" style="fill:rgb(255,202,40);stroke:black;stroke-width:2.68px;"/>
            </g>
            <g transform="matrix(-2.15771,-2.15771,2.22244,-2.22244,5512.91,13496.2)">
                <circle cx="3014.05" cy="2894.07" r="22.614" style="fill:white;stroke:black;stroke-width:2.42px;"/>
            </g>
            <g transform="matrix(-1.7693,-1.7693,1.6122,-1.6122,5918.58,9448.58)">
                <path d="M2653.47,2577.21L2639.53,2577.21L2645.06,2515.53L2647.94,2515.53L2653.47,2577.21Z" style="fill:rgb(255,142,0);stroke:black;stroke-width:3.13px;"/>
            </g>
        </g>
    </g>
    <defs>
        <linearGradient id="_Linear1" x1="0" y1="0" x2="1" y2="0" gradientUnits="userSpaceOnUse" gradientTransform="matrix(8.7647e-15,-143.138,143.138,8.7647e-15,2874.22,2848.16)"><stop offset="0" style="stop-color:rgb(166,193,253);stop-opacity:1"/><stop offset="1" style="stop-color:rgb(252,194,217);stop-opacity:1"/></linearGradient>
        <linearGradient id="_Linear2" x1="0" y1="0" x2="1" y2="0" gradientUnits="userSpaceOnUse" gradientTransform="matrix(8.7647e-15,-143.138,143.138,8.7647e-15,2874.22,2848.16)"><stop offset="0" style="stop-color:rgb(166,193,253);stop-opacity:1"/><stop offset="1" style="stop-color:rgb(252,194,217);stop-opacity:1"/></linearGradient>
    </defs>
</svg>
