<?xml version="1.0" encoding="UTF-8" standalone="no"?>
<!DOCTYPE svg PUBLIC "-//W3C//DTD SVG 1.1//EN" "http://www.w3.org/Graphics/SVG/1.1/DTD/svg11.dtd">
<svg width="100%" height="100%" viewBox="0 0 1900 1900" version="1.1" xmlns="http://www.w3.org/2000/svg" xmlns:xlink="http://www.w3.org/1999/xlink" xml:space="preserve" xmlns:serif="http://www.serif.com/" style="fill-rule:evenodd;clip-rule:evenodd;stroke-linecap:round;stroke-linejoin:round;stroke-miterlimit:1.5;">
    <g transform="matrix(1,0,0,1,-2020.33,0)">
        <g id="references">
        </g>
        <g id="artboard" transform="matrix(0.989583,0,0,1.75926,2020.33,0)">
            <rect x="0" y="0" width="1920" height="1080" style="fill:none;"/>
            <g transform="matrix(0.875137,-0.321749,0.571998,0.492265,-2507.47,982.463)">
                <path d="M3049.6,420.733C3077.81,350.138 3146.17,303.839 3222.19,303.839C3298.21,303.839 3366.57,350.138 3394.78,420.733L3555.08,821.873C3560.76,836.094 3569.27,849.01 3580.1,859.839C3590.93,870.667 3603.84,879.181 3618.07,884.863L4019.2,1045.16C4089.8,1073.37 4136.1,1141.73 4136.1,1217.75C4136.1,1293.77 4089.8,1362.13 4019.2,1390.34L3618.07,1550.63C3603.84,1556.32 3590.93,1564.83 3580.1,1575.66C3569.27,1586.49 3560.76,1599.4 3555.08,1613.62L3394.78,2014.76C3366.57,2085.36 3298.21,2131.66 3222.19,2131.66C3146.17,2131.66 3077.81,2085.36 3049.6,2014.76L2889.3,1613.62C2883.62,1599.4 2875.11,1586.49 2864.28,1575.66C2853.45,1564.83 2840.53,1556.32 2826.32,1550.63L2425.17,1390.34C2354.58,1362.13 2308.28,1293.77 2308.28,1217.75C2308.28,1141.73 2354.58,1073.37 2425.17,1045.16L2826.32,884.863C2840.53,879.181 2853.45,870.667 2864.28,859.839C2875.11,849.01 2883.62,836.094 2889.3,821.873L3049.6,420.733Z" style="fill:rgb(128,165,255);fill-opacity:0.27;stroke:rgb(162,167,255);stroke-opacity:0.38;stroke-width:4.83px;"/>
            </g>
            <g id="laptop" transform="matrix(1.70697,-0.199645,0.402588,1.08912,-837.153,224.112)">
                <g transform="matrix(-1.52914,7.98441e-17,7.98441e-17,1.3481,716.664,820.823)">
                    <path d="M0,2.036C0,2.036 10.884,3.503 16.652,-7.384L22.361,-2.274C22.361,-2.274 17.58,9.42 0,9.42" style="fill:rgb(119,131,255);fill-rule:nonzero;stroke:black;stroke-width:2.84px;stroke-miterlimit:10;"/>
                </g>
                <g transform="matrix(-1.52914,7.98441e-17,7.98441e-17,1.3481,713.23,823.569)">
                    <path d="M0,7.384L-81.496,7.384C-83.461,7.384 -85.055,5.791 -85.055,3.825L-85.055,3.558C-85.055,1.593 -83.461,0 -81.496,0L0,0C1.965,0 3.559,1.593 3.559,3.558L3.559,3.825C3.559,5.791 1.965,7.384 0,7.384Z" style="fill:rgb(162,167,255);fill-rule:nonzero;stroke:black;stroke-width:2.84px;stroke-miterlimit:10;"/>
                </g>
                <g transform="matrix(-1.52914,7.98441e-17,7.98441e-17,1.3481,603.269,814.453)">
                    <path d="M0,-102.034L-52.206,3.28C-53.112,5.107 -55.327,5.854 -57.154,4.949C-58.981,4.043 -59.728,1.828 -58.822,0.001L-6.616,-105.314C-5.711,-107.141 -3.495,-107.888 -1.668,-106.982C0.159,-106.076 0.906,-103.861 0,-102.034Z" style="fill:rgb(162,167,255);fill-rule:nonzero;stroke:black;stroke-width:2.84px;stroke-miterlimit:10;"/>
                </g>
                <g transform="matrix(-1.52914,7.98441e-17,7.98441e-17,1.3481,405.39,833.11)">
                    <path d="M0,-121.229C-0.967,-121.433 -1.952,-121.536 -2.94,-121.533L-132.528,-121.229L-132.552,-121.192C-132.054,-121.17 -131.553,-121.048 -131.078,-120.813C-129.251,-119.907 -128.504,-117.692 -129.41,-115.865L-181.201,-11.388C-181.201,-11.388 -181.316,-11.106 -181.576,-10.632L-181.612,-10.559C-181.686,-10.41 -181.771,-10.272 -181.861,-10.138C-183.668,-7.125 -189.544,0.307 -203.562,0.307L-72.488,0.307C-57.633,0.307 -51.917,-8.043 -50.502,-10.632L1.668,-115.873C2.574,-117.7 1.827,-120.323 0,-121.229Z" style="fill:rgb(162,167,255);fill-rule:nonzero;stroke:black;stroke-width:2.84px;stroke-miterlimit:10;"/>
                </g>
            </g>
            <g id="hair" transform="matrix(1.74209,0.039187,-0.0790215,1.11152,-528.776,-84.4178)">
                <g transform="matrix(0.579603,0,0,0.480701,384.788,-475.047)">
                    <path d="M669.427,2051.44C623.942,2105.32 584.208,2131.73 564.752,2142.61C522.763,2101.97 495.022,2060.95 476.859,2026.3C497.838,1991.79 581.25,1975.02 581.25,1975.02C520.612,1974.77 473.855,1996.29 464.624,2000.85C447.656,1962.1 443.787,1936.07 443.787,1936.07C490.696,1888.3 541.341,1860.43 580.878,1841.15C600.01,1862.15 619.935,1897.54 631.434,1957.12C641.019,2006.79 653.116,2035.5 669.427,2051.44ZM1229.51,2026.8C1250.25,2065.7 1273.74,2113.44 1284.85,2149.01C1238.28,2185.68 1193.45,2208.98 1163.21,2224.6C1075.22,2270.07 893.329,2346.72 681.461,2228.46C649.722,2210.74 622.186,2191.76 598.258,2172.31C617.799,2141.68 648.363,2093.94 673.339,2054.95C703.052,2079.42 746.072,2066.72 811.511,2060.62C917.281,2050.76 870.461,2247.9 1077.45,2132.08C1159.66,2086.09 1204.94,2054.35 1229.51,2026.8ZM1386.49,1935.85C1395.19,1940.85 1412.66,1953 1425.87,1975.79C1398.89,2031.01 1364.83,2074.84 1329.4,2109.79C1319.08,2103.22 1276,2074.15 1233.73,2021.86C1265.99,1982.38 1256.3,1950.52 1254.88,1895.12C1252.79,1814.15 1358.29,1845.77 1387.85,1751.5C1425.4,1756.58 1481.33,1752.76 1481.33,1752.76C1478.65,1798.36 1471.93,1839.64 1462.16,1877.1C1393.76,1889.49 1343.53,1869.33 1333.64,1864.91C1332.47,1864.37 1331.83,1864.07 1331.83,1864.07C1331.83,1864.07 1332.47,1864.39 1333.64,1864.91C1343.95,1869.69 1397.25,1894.38 1449.76,1918.14C1445.55,1930.31 1441.02,1942.06 1436.18,1953.33C1413.94,1948.49 1395.28,1940.17 1386.49,1935.85C1383.14,1933.93 1381.08,1933.06 1381.08,1933.06C1381.08,1933.06 1383.02,1934.15 1386.49,1935.85Z" style="fill:url(#_Radial1);fill-rule:nonzero;"/>
                </g>
                <g transform="matrix(0.579603,0,0,0.480701,0,37.1184)">
                    <path d="M1244.76,775.694C1262.57,767.005 1278.13,760.06 1290.08,753.824C1328.54,733.747 1336.52,710.35 1382.11,574.464C1394.77,536.72 1416.76,509.269 1441.91,489.307C1522.83,425.092 1639.61,436.354 1710.02,511.94C1720.79,523.496 1731.49,536.718 1741.74,551.818C1806.36,647.056 1886.32,637.208 1920.2,639.688C1954.08,642.169 2003.27,675.585 2039.21,683.834C2043.04,684.713 2047.25,685.445 2051.73,686.05C2022.17,780.32 1916.67,748.699 1918.76,829.664C1920.18,885.069 1929.87,916.926 1897.61,956.402C1886.92,943.176 1876.28,928.465 1866.23,912.257C1859.05,899.726 1854.49,892.109 1854.49,892.109C1858.28,899.072 1862.21,905.774 1866.23,912.257C1873.34,924.669 1883.02,941.904 1893.39,961.343C1868.82,988.891 1823.54,1020.63 1741.34,1066.63C1534.34,1182.44 1581.16,985.307 1475.39,995.164C1409.95,1001.26 1366.93,1013.96 1337.22,989.499C1329.6,1001.39 1321.46,1014.1 1313.28,1026.88C1276.19,1059.85 1245.88,1067.51 1228.63,1077.15C1248.09,1066.27 1287.82,1039.87 1333.31,985.985C1317,970.05 1304.9,941.334 1295.32,891.668C1283.82,832.082 1263.89,796.693 1244.76,775.694Z" style="fill:rgb(8,6,5);fill-rule:nonzero;"/>
                </g>
                <g transform="matrix(0.57914,-0.0204177,0.0231597,0.510573,-863.568,106.393)">
                    <path d="M2756.52,683.468C2768.06,678.204 2776.95,672.418 2785.16,663.38C2859.67,746.152 2860,887.835 3016.76,874.826C3204.35,859.259 3193.26,750.74 3307.42,693.659C3368.27,663.232 3398.84,631.626 3414.11,608.743C3428.47,614.108 3443.92,621.826 3459.14,629.181C3435.48,676.618 3349.82,699.514 3301.21,750.74C3243.1,811.972 3264.87,860.75 3264.87,860.75C3271.55,912.644 3209.59,979.423 3131.45,1020.31C2993.11,1057.46 3024.92,914.005 2930.96,918.469C2899.6,919.96 2873.29,923.073 2851.23,923.275C2822.78,783.943 2784.95,716.227 2756.52,683.468Z" style="fill:white;fill-opacity:0.1;"/>
                </g>
                <g transform="matrix(0.579603,0,0,0.480701,0,37.1184)">
                    <path d="M1228.63,1077.15C1186.64,1036.52 1158.9,995.501 1140.74,960.845C1161.72,926.34 1245.13,909.565 1245.13,909.565C1184.49,909.319 1137.74,930.833 1128.51,935.397C1111.54,896.644 1107.67,870.614 1107.67,870.614C1154.58,822.849 1205.22,794.978 1244.76,775.694C1262.57,767.005 1278.13,760.06 1290.08,753.824C1328.54,733.747 1336.52,710.35 1382.11,574.464C1394.77,536.72 1416.76,509.269 1441.91,489.307C1522.83,425.092 1639.61,436.354 1710.02,511.94C1720.79,523.496 1731.49,536.718 1741.74,551.818C1806.36,647.056 1886.32,637.208 1920.2,639.688C1954.08,642.169 2003.27,675.585 2039.21,683.834C2043.04,684.713 2047.25,685.445 2051.73,686.05C2089.28,691.122 2145.22,687.31 2145.22,687.31C2142.53,732.903 2135.81,774.191 2126.05,811.645C2057.64,824.036 2007.41,803.88 1997.52,799.459C1996.36,798.917 1995.71,798.619 1995.71,798.619C1995.71,798.619 1996.35,798.934 1997.52,799.459C2007.84,804.24 2061.14,828.924 2113.64,852.683C2109.43,864.859 2104.9,876.602 2100.06,887.879C2077.82,883.035 2059.16,874.72 2050.37,870.398C2047.02,868.475 2044.96,867.603 2044.96,867.603C2044.96,867.603 2046.9,868.692 2050.37,870.398C2059.07,875.393 2076.54,887.55 2089.75,910.332C2062.77,965.555 2028.71,1009.39 1993.28,1044.34C1982.96,1037.77 1939.88,1008.69 1897.61,956.402C1886.92,943.176 1876.28,928.465 1866.23,912.257C1859.05,899.726 1854.49,892.109 1854.49,892.109C1858.28,899.072 1862.21,905.774 1866.23,912.257C1873.34,924.669 1883.02,941.904 1893.39,961.343C1914.13,1000.25 1937.62,1047.99 1948.74,1083.56C1902.16,1120.23 1857.34,1143.52 1827.1,1159.15C1739.1,1204.61 1557.21,1281.27 1345.34,1163C1313.6,1145.28 1286.07,1126.31 1262.14,1106.86C1275.72,1085.57 1294.62,1056.02 1313.28,1026.88C1276.19,1059.85 1245.88,1067.51 1228.63,1077.15Z" style="fill:none;stroke:black;stroke-width:7.73px;stroke-miterlimit:2;"/>
                </g>
            </g>
            <g id="arm-right" transform="matrix(1.74348,0,0,1.11241,-558.01,-31.2125)">
                <g transform="matrix(-1.03814,0.245292,0.278234,0.915228,500.982,592.658)">
                    <path d="M0,-192.575C0,-192.575 7.067,-206.959 -9.114,-209.356C-9.114,-209.356 4.299,-230.581 2.966,-258.053C2.838,-260.683 2.099,-263.267 0.734,-265.519C-1.062,-268.484 -4.085,-271.192 -8.515,-268.081C-16.39,-262.549 -12.794,-237.377 -27.178,-214.603C-10.996,-266.744 -24.976,-265.569 -24.976,-265.569C-31.764,-266.192 -33.087,-257.003 -33.087,-257.003C-38.996,-207.708 -64.252,-199.767 -64.252,-199.767C-64.252,-199.767 -68.447,-226.137 -85.228,-230.332C-85.228,-230.332 -92.42,-230.931 -89.423,-216.548C-86.427,-202.164 -85.009,-197.368 -85.228,-184.184C-85.438,-171.522 -82.792,-160.286 -77.952,-151.206C-77.951,-151.203 -77.952,-151.201 -77.951,-151.199C-76.326,-146.935 -74.245,-142.343 -74.245,-142.343C-77.225,-129.173 -83.915,-116.683 -89.575,-104.463C-99.625,-82.673 -114.575,-68.463 -130.875,-48.383C-136.812,-41.07 -142.865,-32.653 -150.565,-27.023C-155.935,-25.773 -178.395,-22.753 -183.905,-21.953C-205.475,-18.823 -227.995,-19.103 -250.725,-23.273C-261.165,-25.193 -271.285,-27.863 -281.005,-31.223C-281.745,-31.473 -282.495,-31.733 -283.235,-31.993C-285.155,-32.673 -287.055,-33.383 -288.935,-34.123C-307.755,-39.303 -328.705,-33.383 -341.895,-17.323C-359.775,4.447 -356.615,36.577 -334.855,54.447C-331.215,57.447 -327.285,59.847 -323.165,61.657C-322.965,61.757 -322.765,61.837 -322.565,61.927C-319.345,63.007 -316.085,64.037 -312.805,65.007C-303.735,67.677 -294.425,69.897 -284.905,71.647C-246.895,78.617 -209.285,77.277 -173.945,68.907C-162.645,66.227 -151.585,62.837 -140.825,58.767C-124.415,51.567 -110.175,41.827 -98.655,30.537C-93.485,24.967 -88.575,19.187 -83.915,13.207C-61.295,-15.773 -48.665,-49.213 -39.285,-85.023C-35.765,-98.413 -33.275,-112.143 -31.865,-126.093C-31.271,-128.294 -26.781,-131.168 -25.328,-132.049C-25.203,-132.124 -25.077,-132.198 -24.953,-132.274C-24.899,-132.305 -24.865,-132.325 -24.865,-132.325L-24.868,-132.328C-12.473,-139.923 -5.003,-153.473 -5.003,-153.473C5.784,-166.658 7.916,-187.181 0,-192.575" style="fill:rgb(255,204,176);fill-rule:nonzero;stroke:black;stroke-width:4.04px;stroke-linecap:butt;stroke-miterlimit:2;"/>
                </g>
                <g transform="matrix(-0.148812,0.489621,-0.533177,-0.12595,1622.94,-220.239)">
                    <path d="M1697.05,1034.74C1697.05,1034.74 1671.35,874.483 1828.25,901.975C1828.25,901.975 1892.87,909.005 1959.38,1041.48C1963.05,1048.77 1961.6,1057.71 1955.84,1063.34C1922.91,1095.46 1815.73,1198.46 1801.74,1193.68C1776.88,1185.19 1706.86,1111.55 1697.05,1034.74Z" style="fill:rgb(255,142,0);stroke:black;stroke-width:7.71px;"/>
                </g>
                <g>
                    <g transform="matrix(0.281571,-0.914435,1.03724,0.248235,492.338,398.641)">
                        <path d="M-28.657,16.482C-7.936,4.426 9.479,16.482 9.479,16.482" style="fill:none;fill-rule:nonzero;stroke:black;stroke-width:4.04px;stroke-miterlimit:10;"/>
                    </g>
                    <g transform="matrix(-1.03814,0.245292,0.278234,0.915228,458.832,427.228)">
                        <path d="M0,6.593C0,6.593 -24.572,26.37 -29.966,14.983C-35.36,3.596 1.448,-19.777 7.316,-13.784" style="fill:none;fill-rule:nonzero;stroke:black;stroke-width:4.04px;stroke-miterlimit:10;"/>
                    </g>
                    <g transform="matrix(-1.03814,0.245292,0.278234,0.915228,473.387,394.57)">
                        <path d="M0,29.007C0,29.007 -8.562,29.786 -9.76,24.392C-10.959,18.998 -8.819,13.605 0,8.81C8.819,4.015 16.01,-0.18 20.206,-0.779" style="fill:none;fill-rule:nonzero;stroke:black;stroke-width:4.04px;stroke-miterlimit:10;"/>
                    </g>
                    <g transform="matrix(-0.692671,0.724501,-0.821797,-0.610663,468.872,383.089)">
                        <path d="M-1.775,-5.652C-1.775,-5.652 10.964,-3.876 17.997,-5.652" style="fill:rgb(157,141,129);fill-rule:nonzero;stroke:black;stroke-width:4.04px;stroke-miterlimit:10;"/>
                    </g>
                    <g transform="matrix(0.877371,0.54728,-0.620776,0.773496,659.173,545.598)">
                        <path d="M-16.044,-7.53C-16.044,-7.53 -3.898,-11.103 3.534,-7.53" style="fill:rgb(157,141,129);fill-rule:nonzero;stroke:black;stroke-width:4.04px;stroke-miterlimit:10;"/>
                    </g>
                </g>
            </g>
            <g id="body">
                <g transform="matrix(1.00966,-0.0235581,0.0418811,0.567933,-591.676,1.23088)">
                    <path d="M1311.68,970.087C1311.68,970.087 1435,867.35 1559.36,864.646C1683.73,861.943 1772.95,873.977 1858.11,929.467C1943.27,984.956 1934.45,1060.66 1906.92,1168.8C1879.39,1276.94 1928.07,1275.59 1900.4,1354C1872.75,1432.4 1830.3,1462.14 1656.31,1433.75C1482.31,1405.37 1413.37,1564.16 1267.37,1484.09C1121.38,1404.02 1161.34,1100.03 1311.68,970.087Z" style="fill:rgb(255,110,1);stroke:black;stroke-width:7.5px;"/>
                </g>
                <g id="blouse">
                    <g transform="matrix(1.44523,0,-0.316226,0.619147,353.891,-754.813)">
                        <path d="M943.285,1974.74C1051.17,1974.74 1153.09,2050.17 1161.54,2121.23C1170.72,2198.36 1217.92,2427.32 1156.9,2490.32C1128.87,2519.26 1041.85,2531.2 1005.53,2531.2C887.142,2531.2 747.804,2168.08 747.804,2099.32C747.804,2030.57 835.396,1974.74 943.285,1974.74Z" style="fill:rgb(236,231,225);stroke:rgb(8,6,5);stroke-width:6.34px;"/>
                    </g>
                    <g transform="matrix(1.01053,0,0,0.568421,-558.01,-31.2125)">
                        <path d="M1469.06,964.073C1469.06,964.073 1552.06,1048.71 1667.73,962.533" style="fill:none;stroke:rgb(192,192,192);stroke-width:10px;"/>
                    </g>
                </g>
                <g transform="matrix(1.74348,0,0,1.11241,-558.01,-34.0546)">
                    <g transform="matrix(0.579105,-0.0211776,0.0240216,0.510542,-19.3096,31.7198)">
                        <path d="M1699.63,871.146C1757.88,879.689 1800.1,897.907 1849.54,930.117C1934.7,985.606 1934.45,1060.66 1906.92,1168.8C1879.39,1276.94 1928.07,1275.59 1900.4,1354C1888.86,1386.73 1874.73,1410.99 1849.53,1426.07L1789.94,1426.6C1789.94,1426.6 1815.35,1318.55 1724.51,1206.78C1603.88,1058.34 1674.83,868.449 1674.83,868.449L1699.63,871.146Z" style="fill:rgb(255,142,0);stroke:black;stroke-width:7.5px;"/>
                    </g>
                    <g transform="matrix(0.579603,0,0,0.510981,0,0)">
                        <path d="M1700.29,1138.6C1700.29,1138.6 1731.28,1122.85 1781.95,1128.58" style="fill:rgb(255,142,0);stroke:black;stroke-width:7.5px;"/>
                    </g>
                </g>
                <g transform="matrix(1.74348,0,0,1.11241,-558.01,-34.0546)">
                    <g transform="matrix(0.579105,-0.0211776,0.0240216,0.510542,-19.3096,31.7198)">
                        <path d="M1288.69,1494.05C1288.69,1494.05 1270.64,1485.88 1267.37,1484.09C1121.38,1404.02 1161.34,1100.03 1311.68,970.087C1311.68,970.087 1390.66,904.288 1485.95,876.621C1485.74,878.627 1485.49,880.649 1485.21,882.686C1456.83,1089.73 1388.16,1072.56 1311.68,1211.96C1235.21,1351.37 1288.69,1494.05 1288.69,1494.05Z" style="fill:rgb(255,142,0);stroke:black;stroke-width:7.5px;"/>
                    </g>
                    <g transform="matrix(0.565575,0,-0.325076,0.681864,-505.187,-138.427)">
                        <ellipse cx="2846.07" cy="974.191" rx="44.419" ry="31.55" style="fill:rgb(255,180,0);"/>
                    </g>
                    <g transform="matrix(0.579603,0,0,0.510981,0,0)">
                        <path d="M1247.52,1076.61C1247.52,1076.61 1328.23,1099.77 1366.85,1150.95" style="fill:none;stroke:black;stroke-width:7.5px;"/>
                    </g>
                </g>
            </g>
            <g id="arm-left" transform="matrix(1.74348,0,0,1.11241,-558.01,-31.2125)">
                <g>
                    <g transform="matrix(0.104513,-0.944336,1.07115,0.0921393,1138.14,483.556)">
                        <path d="M0,-71.3C-0.951,-66.445 -2.559,-61.897 -4.723,-57.713C-6.513,-54.834 -8.383,-51.969 -10.291,-49.135C-15.598,-41.297 -21.358,-33.657 -27.588,-26.258C-37.427,-14.573 -48.034,-3.93 -59.289,5.654C-89.64,31.527 -124.639,49.731 -161.534,60.021C-161.766,60.081 -161.989,60.152 -162.222,60.213C-163.882,60.678 -165.545,61.123 -167.213,61.55C-175.392,63.646 -184,63.851 -192.168,61.715C-193.983,61.24 -195.79,60.659 -197.582,59.967L-197.646,59.942C-201.189,58.575 -204.547,56.765 -207.612,54.523C-209.528,53.121 -211.425,51.696 -213.295,50.241C-233.702,34.438 -250.837,13.864 -264.013,-8.176C-281.803,-37.934 -292.732,-69.01 -301.108,-103.785L-258.444,-119.041C-245.461,-84.337 -214.049,-58.002 -184.113,-35.43C-184.055,-35.387 -184.006,-35.345 -183.948,-35.313C-180.848,-32.972 -177.682,-30.724 -174.437,-28.577L-166.032,-33.614C-165.94,-33.67 -165.848,-33.726 -165.755,-33.783C-146.861,-45.154 -131.797,-66.216 -116.727,-84.121C-109.887,-92.236 -101.417,-94.345 -96.051,-103.132C-94.571,-105.523 -93.149,-107.966 -91.788,-110.412C-80.561,-126.384 -60.633,-135.151 -40.24,-131.148C-12.6,-125.735 5.423,-98.94 0,-71.3" style="fill:rgb(255,204,176);fill-rule:nonzero;stroke:black;stroke-width:4.04px;stroke-linecap:butt;stroke-miterlimit:2;"/>
                    </g>
                    <g transform="matrix(0.302942,-1.07577,1.22024,0.267075,986.573,693.411)">
                        <path d="M0,-100.465C2.145,-102.733 2.112,-106.307 -0.109,-108.528C-2.33,-110.749 -5.905,-110.782 -8.172,-108.637L-8.175,-108.64L-8.221,-108.594C-8.244,-108.571 -8.27,-108.551 -8.293,-108.528C-8.328,-108.493 -8.358,-108.454 -8.392,-108.418C-8.392,-108.418 -109.929,-4.788 -118.385,3.842C-118.755,4.22 -119.056,4.659 -119.274,5.141C-119.827,6.362 -120.989,8.926 -122.07,11.313C-122.41,12.064 -122.232,12.948 -121.628,13.509C-121.024,14.07 -120.128,14.182 -119.405,13.788C-117.105,12.534 -114.658,11.199 -113.591,10.617C-113.225,10.418 -112.889,10.169 -112.592,9.878C-104.872,2.314 0.013,-100.452 0.013,-100.452L0,-100.465Z" style="fill:rgb(162,167,255);fill-rule:nonzero;stroke:black;stroke-width:3.46px;stroke-linecap:butt;stroke-miterlimit:2;"/>
                    </g>
                    <g transform="matrix(0.104513,-0.944336,1.07115,0.0921393,877.557,706.569)">
                        <path d="M0.767,98.94C0.767,98.94 -1.716,86.836 -0.158,76.01C1.761,64.797 4.026,43.559 -1.64,24.337C-1.64,24.337 -4.918,16.965 -27.102,18.866C-27.102,18.866 -36.024,-9.372 -45.695,-11.651C-55.366,-13.93 -57.307,-2.331 -57.307,-2.331C-57.307,-2.331 -64.076,-5.119 -70.121,-2.735C-76.166,-0.351 -76.517,8.982 -76.517,8.982C-76.517,8.982 -93.471,-25.444 -103.205,-14.818C-110.432,-6.929 -78.114,48.998 -78.114,48.998C-78.114,48.998 -108.401,10.14 -115.486,17.136C-122.044,23.611 -90.005,69.315 -57.678,97.654L-57.679,97.654C-57.679,97.654 -47.964,109.551 -46.213,115.628L-43.944,125.142L4.607,106.851L0.767,98.94Z" style="fill:rgb(44,44,44);fill-rule:nonzero;stroke:black;stroke-width:4.04px;stroke-linecap:butt;stroke-miterlimit:2;"/>
                    </g>
                    <g transform="matrix(0.579603,0,0,0.510981,-850.932,28.0584)">
                        <path d="M3023.51,1458.04C3023.51,1458.04 3005.82,1441.36 3009,1420.68" style="fill:none;stroke:black;stroke-width:7.5px;"/>
                    </g>
                    <g transform="matrix(0.579603,0,0,0.510981,-850.932,28.0584)">
                        <path d="M3009,1420.68C3009,1420.68 2998.61,1416.03 2999.34,1404.86" style="fill:none;stroke:black;stroke-width:7.5px;"/>
                    </g>
                    <g transform="matrix(0.579603,0,0,0.510981,-850.932,28.0584)">
                        <path d="M3012.18,1381.35L3052.21,1371.09" style="fill:none;stroke:black;stroke-width:7.5px;"/>
                    </g>
                    <g transform="matrix(0.943833,-0.455947,-0.517178,-0.832089,1089.04,630.662)">
                        <path d="M-7.381,-13.968C-7.381,-13.968 12.088,-6.605 26.433,-13.968" style="fill:none;fill-rule:nonzero;stroke:black;stroke-width:4.04px;stroke-miterlimit:10;"/>
                    </g>
                </g>
                <g transform="matrix(0.557521,0,0,0.486633,43.0358,19.3291)">
                    <path d="M1697.05,1034.74C1697.05,1034.74 1671.35,874.483 1828.25,901.975C1828.25,901.975 1892.96,909.015 1959.53,1041.77C1963.12,1048.93 1961.68,1057.63 1955.97,1063.21C1923.18,1095.19 1815.75,1198.47 1801.74,1193.68C1776.88,1185.19 1706.86,1111.55 1697.05,1034.74Z" style="fill:rgb(255,142,0);stroke:black;stroke-width:7.84px;"/>
                </g>
            </g>
            <g transform="matrix(1.01053,0,0,0.568421,-599.141,-808.139)">
                <path d="M1691.94,2247.9C1595.89,2330.74 1553.72,2259.86 1553.72,2259.86L1553.72,2184.78L1672.44,2184.78L1691.94,2247.9Z" style="fill:rgb(255,204,176);stroke:black;stroke-width:7.5px;"/>
            </g>
            <g transform="matrix(1.01053,0,0,0.568421,-550.252,-51.3542)">
                <path d="M1505.34,874.817C1505.34,874.817 1553.42,887.999 1600.88,872.9C1600.88,872.9 1585.9,915.666 1505.34,915.666L1505.34,874.817Z"/>
            </g>
            <g transform="matrix(0.938688,0.0211151,-0.0403785,0.567967,-407.632,-842.573)">
                <path d="M1756.86,2093.75C1736.52,2170.85 1672.15,2227.24 1595.97,2227.24C1503.47,2227.24 1428.38,2144.11 1428.38,2041.71C1428.38,1939.32 1503.47,1856.19 1595.97,1856.19C1684.46,1856.19 1757.03,1932.28 1763.14,2028.54C1763.28,2028.54 1763.41,2028.54 1763.55,2028.54C1781.74,2028.54 1796.5,2043.3 1796.5,2061.49C1796.5,2079.67 1781.74,2094.43 1763.55,2094.43C1761.26,2094.43 1759.02,2094.2 1756.86,2093.75Z" style="fill:rgb(255,204,176);stroke:black;stroke-width:7.77px;stroke-linejoin:miter;"/>
            </g>
            <g transform="matrix(0.992379,0.107241,-0.19065,0.558213,472.764,-721.233)">
                <path d="M663.819,1707.99C663.819,1707.99 726.044,1712.44 803.955,1715.49C803.955,1715.49 816.569,1663.24 842.558,1660.64C842.558,1660.64 934.006,1760.91 1055.63,1684.74C1070.94,1639.71 979.216,1475.94 812.908,1552.43C812.908,1552.43 683.617,1548.8 663.819,1707.99Z" style="fill:rgb(8,6,5);"/>
            </g>
            <g transform="matrix(0.768918,0.0172963,-0.0307489,0.432517,320.416,-429.871)">
                <circle cx="813.238" cy="1784.55" r="22.021" style="fill:rgb(8,6,5);"/>
            </g>
            <g transform="matrix(0.768918,0.0172963,-0.0307489,0.432517,438.614,-427.212)">
                <circle cx="813.238" cy="1784.55" r="22.021" style="fill:rgb(8,6,5);"/>
            </g>
            <g transform="matrix(0.892532,0.0200769,-0.0356922,0.502049,382.386,-529.609)">
                <circle cx="813.238" cy="1784.55" r="22.021" style="fill:rgb(255,154,156);"/>
            </g>
            <g transform="matrix(1.00907,0.0305546,-0.0543193,0.567599,-1993.12,-91.8435)">
                <path d="M2869.41,693.281C2864.78,681.374 2861.24,668.823 2858.93,655.785C2860.51,655.369 2862.18,655.148 2863.89,655.148C2874.63,655.148 2883.35,663.87 2883.35,674.613C2883.35,683.437 2877.47,690.897 2869.41,693.281Z" style="fill:rgb(255,154,156);"/>
            </g>
            <g transform="matrix(1.2561,0.664473,-1.18129,0.706554,352.222,-372.675)">
                <path d="M768.337,275.678C768.337,266.957 775.417,259.876 784.139,259.876" style="fill:none;stroke:rgb(8,6,5);stroke-width:5.86px;"/>
            </g>
            <g transform="matrix(1.2561,0.664473,-1.18129,0.706554,227.355,-375.484)">
                <path d="M768.337,275.678C768.337,266.957 775.417,259.876 784.139,259.876" style="fill:none;stroke:rgb(8,6,5);stroke-width:5.86px;"/>
            </g>
            <g transform="matrix(0.462851,0.0104115,-0.0157103,0.220982,811.603,9.85659)">
                <path d="M310.925,1764.77C310.925,1811.16 348.532,1848.77 394.923,1848.77C441.314,1848.77 478.922,1811.16 478.922,1764.77L394.923,1764.77L310.925,1764.77Z" style="fill:rgb(8,6,5);"/>
            </g>
            <g transform="matrix(0.911685,0.0205077,-0.054339,0.764337,294.587,-1001.52)">
                <path d="M819.385,1755.45C819.385,1755.45 813.894,1780 810.664,1796.47" style="fill:none;stroke:rgb(255,133,135);stroke-width:8.73px;"/>
            </g>
            <g id="stars">
                <g transform="matrix(0.0928311,0,0,0.0522175,-226.622,-179.796)">
                    <path d="M5743.45,5333.28C5743.5,5290.27 5778.38,5255.43 5821.4,5255.43C5864.41,5255.43 5899.3,5290.27 5899.34,5333.28L5900.99,6859.05C5901.12,6980.6 5949.47,7097.14 6035.42,7183.09C6121.37,7269.03 6237.9,7317.38 6359.45,7317.51L7885.22,7319.16C7928.23,7319.21 7963.08,7354.09 7963.08,7397.11C7963.08,7440.12 7928.23,7475 7885.22,7475.05L6359.45,7476.7C6237.9,7476.83 6121.37,7525.18 6035.42,7611.12C5949.47,7697.07 5901.12,7813.61 5900.99,7935.16L5899.34,9460.93C5899.3,9503.94 5864.41,9538.78 5821.4,9538.78C5778.38,9538.78 5743.5,9503.94 5743.45,9460.93L5741.8,7935.16C5741.67,7813.61 5693.33,7697.07 5607.38,7611.12C5521.43,7525.18 5404.9,7476.83 5283.35,7476.7L3757.58,7475.05C3714.56,7475 3679.72,7440.12 3679.72,7397.11C3679.72,7354.09 3714.56,7319.21 3757.58,7319.16L5283.35,7317.51C5404.9,7317.38 5521.43,7269.03 5607.38,7183.09C5693.33,7097.14 5741.67,6980.6 5741.8,6859.05L5743.45,5333.28Z" style="fill:url(#_Linear2);"/>
                    <path d="M5661.81,5333.2C5661.91,5245.13 5733.33,5173.78 5821.4,5173.78C5909.47,5173.78 5980.89,5245.13 5980.98,5333.2L5982.64,6858.96C5982.74,6958.89 6022.49,7054.7 6093.15,7125.36C6163.81,7196.02 6259.61,7235.76 6359.54,7235.87L7885.31,7237.52C7973.38,7237.61 8044.72,7309.03 8044.72,7397.11C8044.72,7485.18 7973.38,7556.6 7885.31,7556.69L6359.54,7558.34C6259.61,7558.45 6163.81,7598.2 6093.15,7668.86C6022.49,7739.51 5982.74,7835.32 5982.64,7935.25L5980.98,9461.01C5980.89,9549.08 5909.47,9620.43 5821.4,9620.43C5733.33,9620.43 5661.91,9549.08 5661.81,9461.01L5660.16,7935.25C5660.05,7835.32 5620.31,7739.51 5549.65,7668.86C5478.99,7598.2 5383.18,7558.45 5283.26,7558.34L3757.49,7556.69C3669.42,7556.6 3598.08,7485.18 3598.08,7397.11C3598.08,7309.03 3669.42,7237.61 3757.49,7237.52L5283.26,7235.87C5383.18,7235.76 5478.99,7196.02 5549.65,7125.36C5620.31,7054.7 5660.05,6958.89 5660.16,6858.96L5661.81,5333.2ZM5743.45,5333.28L5741.8,6859.05C5741.67,6980.6 5693.33,7097.14 5607.38,7183.09C5521.43,7269.03 5404.9,7317.38 5283.35,7317.51L3757.58,7319.16C3714.56,7319.21 3679.72,7354.09 3679.72,7397.11C3679.72,7440.12 3714.56,7475 3757.58,7475.05L5283.35,7476.7C5404.9,7476.83 5521.43,7525.18 5607.38,7611.12C5693.33,7697.07 5741.67,7813.61 5741.8,7935.16L5743.45,9460.93C5743.5,9503.94 5778.38,9538.78 5821.4,9538.78C5864.41,9538.78 5899.3,9503.94 5899.34,9460.93L5900.99,7935.16C5901.12,7813.61 5949.47,7697.07 6035.42,7611.12C6121.37,7525.18 6237.9,7476.83 6359.45,7476.7L7885.22,7475.05C7928.23,7475 7963.08,7440.12 7963.08,7397.11C7963.08,7354.09 7928.23,7319.21 7885.22,7319.16L6359.45,7317.51C6237.9,7317.38 6121.37,7269.03 6035.42,7183.09C5949.47,7097.14 5901.12,6980.6 5900.99,6859.05L5899.34,5333.28C5899.3,5290.27 5864.41,5255.43 5821.4,5255.43C5778.38,5255.43 5743.5,5290.27 5743.45,5333.28Z"/>
                </g>
                <g transform="matrix(0.0638744,0,0,0.0359294,1295.25,672.284)">
                    <path d="M5743.45,5333.28C5743.5,5290.27 5778.38,5255.43 5821.4,5255.43C5864.41,5255.43 5899.3,5290.27 5899.34,5333.28L5900.99,6859.05C5901.12,6980.6 5949.47,7097.14 6035.42,7183.09C6121.37,7269.03 6237.9,7317.38 6359.45,7317.51L7885.22,7319.16C7928.23,7319.21 7963.08,7354.09 7963.08,7397.11C7963.08,7440.12 7928.23,7475 7885.22,7475.05L6359.45,7476.7C6237.9,7476.83 6121.37,7525.18 6035.42,7611.12C5949.47,7697.07 5901.12,7813.61 5900.99,7935.16L5899.34,9460.93C5899.3,9503.94 5864.41,9538.78 5821.4,9538.78C5778.38,9538.78 5743.5,9503.94 5743.45,9460.93L5741.8,7935.16C5741.67,7813.61 5693.33,7697.07 5607.38,7611.12C5521.43,7525.18 5404.9,7476.83 5283.35,7476.7L3757.58,7475.05C3714.56,7475 3679.72,7440.12 3679.72,7397.11C3679.72,7354.09 3714.56,7319.21 3757.58,7319.16L5283.35,7317.51C5404.9,7317.38 5521.43,7269.03 5607.38,7183.09C5693.33,7097.14 5741.67,6980.6 5741.8,6859.05L5743.45,5333.28Z" style="fill:url(#_Linear3);"/>
                    <path d="M5624.8,5333.16C5624.92,5224.66 5712.9,5136.77 5821.4,5136.77C5929.89,5136.77 6017.88,5224.66 6017.99,5333.16L6019.65,6858.92C6019.74,6949.05 6055.59,7035.46 6119.32,7099.18C6183.05,7162.91 6269.45,7198.76 6359.58,7198.86L7885.35,7200.51C7993.84,7200.62 8081.73,7288.61 8081.73,7397.11C8081.73,7505.6 7993.84,7593.59 7885.35,7593.7L6359.58,7595.36C6269.45,7595.45 6183.05,7631.3 6119.32,7695.03C6055.59,7758.75 6019.74,7845.16 6019.65,7935.29L6017.99,9461.05C6017.88,9569.55 5929.89,9657.44 5821.4,9657.44C5712.9,9657.44 5624.92,9569.55 5624.8,9461.05L5623.15,7935.29C5623.05,7845.16 5587.2,7758.75 5523.48,7695.03C5459.75,7631.3 5373.34,7595.45 5283.22,7595.36L3757.45,7593.7C3648.95,7593.59 3561.06,7505.6 3561.06,7397.11C3561.06,7288.61 3648.95,7200.62 3757.45,7200.51L5283.22,7198.86C5373.34,7198.76 5459.75,7162.91 5523.48,7099.18C5587.2,7035.46 5623.05,6949.05 5623.15,6858.92L5624.8,5333.16ZM5743.45,5333.28L5741.8,6859.05C5741.67,6980.6 5693.33,7097.14 5607.38,7183.09C5521.43,7269.03 5404.9,7317.38 5283.35,7317.51L3757.58,7319.16C3714.56,7319.21 3679.72,7354.09 3679.72,7397.11C3679.72,7440.12 3714.56,7475 3757.58,7475.05L5283.35,7476.7C5404.9,7476.83 5521.43,7525.18 5607.38,7611.12C5693.33,7697.07 5741.67,7813.61 5741.8,7935.16L5743.45,9460.93C5743.5,9503.94 5778.38,9538.78 5821.4,9538.78C5864.41,9538.78 5899.3,9503.94 5899.34,9460.93L5900.99,7935.16C5901.12,7813.61 5949.47,7697.07 6035.42,7611.12C6121.37,7525.18 6237.9,7476.83 6359.45,7476.7L7885.22,7475.05C7928.23,7475 7963.08,7440.12 7963.08,7397.11C7963.08,7354.09 7928.23,7319.21 7885.22,7319.16L6359.45,7317.51C6237.9,7317.38 6121.37,7269.03 6035.42,7183.09C5949.47,7097.14 5901.12,6980.6 5900.99,6859.05L5899.34,5333.28C5899.3,5290.27 5864.41,5255.43 5821.4,5255.43C5778.38,5255.43 5743.5,5290.27 5743.45,5333.28Z"/>
                </g>
            </g>
        </g>
        <g id="color-palette" serif:id="color palette">
        </g>
    </g>
    <defs>
        <radialGradient id="_Radial1" cx="0" cy="0" r="1" gradientUnits="userSpaceOnUse" gradientTransform="matrix(5.61607e-14,917.174,-477.171,2.92183e-14,962.56,1769.65)"><stop offset="0" style="stop-color:rgb(242,179,193);stop-opacity:1"/><stop offset="1" style="stop-color:rgb(242,179,193);stop-opacity:1"/></radialGradient>
        <linearGradient id="_Linear2" x1="0" y1="0" x2="1" y2="0" gradientUnits="userSpaceOnUse" gradientTransform="matrix(2.6228e-13,-4283.36,4283.36,2.6228e-13,5821.4,9538.78)"><stop offset="0" style="stop-color:rgb(166,193,253);stop-opacity:1"/><stop offset="1" style="stop-color:rgb(252,194,217);stop-opacity:1"/></linearGradient>
        <linearGradient id="_Linear3" x1="0" y1="0" x2="1" y2="0" gradientUnits="userSpaceOnUse" gradientTransform="matrix(5.89421,-4368.28,4368.28,5.89421,5821.4,9538.78)"><stop offset="0" style="stop-color:rgb(166,193,253);stop-opacity:1"/><stop offset="1" style="stop-color:rgb(252,194,217);stop-opacity:1"/></linearGradient>
    </defs>
</svg>
