<svg id="bf6d78fb-e0ea-40bb-b749-efb50ac50ced" data-name="Layer 1" xmlns="http://www.w3.org/2000/svg" viewBox="0 0 180 117.92"><defs><style>.a2e5d331-497a-45c3-8621-dabb505856af{fill:#ff5621;}</style></defs><g id="b251666d-be74-4096-8a88-f2c884dab1ea" data-name="b6ba96f3-a6e6-4b36-87d8-cc245e5b6a1b"><path class="a2e5d331-497a-45c3-8621-dabb505856af" d="M112.14,149A31.06,31.06,0,0,1,96,144.64a31.43,31.43,0,0,1-10.1-9.84h0c-34.06,0-59.74-16.86-74.26-48.75A136.13,136.13,0,0,1,.22,38.8L0,31.17H57.22l-.29,7.69c-2.2,60.32,11.89,75.4,20.47,79a17.13,17.13,0,0,0,2.63.84h0c-1.64-11.06.58-23.47,6.25-34.93,9.79-19.8,21.55-34.57,35-43.91,10.5-7.31,18.27-8.51,19.12-8.63h.35c15-1.28,20.85,6,23,10.43,7.79,16.26-8.48,44.45-26.9,63.77-9.91,10.4-20.54,18.46-30.74,23.32-1.43.69-2.85,1.3-4.26,1.85a15.51,15.51,0,0,0,1.87,1.34c11.1,6.64,34.58-.35,64.29-41.92l12,8.6c-15.58,21.81-31.09,36.78-46.1,44.5C126.35,147,119,149,112.14,149ZM142.25,46c-.94.19-6.26,1.48-13.53,6.77C121.2,58.21,110,69.18,99.57,90.35c-4.92,10-6.12,19.4-4.78,26.93,9.65-3.36,20.66-11,31.24-22.12,19.31-20.25,27.14-41.1,24.26-47.12C149.22,45.82,144.93,45.76,142.25,46Z" transform="translate(0 -31.08)"/></g></svg>